<svg xmlns="http://www.w3.org/2000/svg" width="1548" height="578"><clipPath id="a"><path d="M-3191-4086h7166v9241h-7166z"/></clipPath><g clip-path="url(#a)"><path d="M179.1 516.6c-25.5 6.9-45.2 30.3-49.1 61.2 13-14 71.2-1.6 91.7-26.3 16.6-20.1-3.9-45.2-42.6-34.9"/><g fill-rule="evenodd"><path d="M141.5 165.5c-.6 1.9-4.3 0-7.2-2.9s-15.2-10.8-19.5-12.3c-4.3-1.4-13.7 0-13.7 0s2.4-11.5-.7-18.5c-2.9-7.1-2-5.7-6.3-7.2-4.4-1.4-8.1-.8-11.8 4.9-3.6 5.6-16.7 15.3.7 44.6 13.6 22.8 27.9 32.7 73.5 48.4 41.6 14.3 61.5 45.2 60.4 82.6-.9 34.8-31.6 63.8-79.1 92.6-56.3 34.2-92 70.5-86.8 151.7-13.3-3.3-38.2-52.9-29.3-86.9s27-59.8 47.7-99.2c22.1-42.6 5.8-82.2-22.1-124.7-23.3-35.3-25.1-48.1-31.4-69.4-4.7-15.5-6.9-37.6-6.1-46 .9-8.6-9.2-17.9-9.2-17.9S10 96.9 13 90.9s2.4-30.8 2.4-30.8 16.8-4.1 20.5-9.7c3.7-5.7.2-19.9.2-19.9s17.4.1 26.1.2S74.6 23 75.4 20.2c.6-2.3-2.6-4.6-4.9-7 3.7-1.5 7.5-3 11.3-4.4 1.8-.3 4-1.1 6.2-2.2C95.3 4 102.5 1.9 109.8 0c.2 3.8-2.1 6.7 2 13.4 4.2 7.2 28.9 8.8 39.1 12.5 10.1 3.6 33.1 28 33.8 32.9.7 5 2.1 6.4 6.4 9.3 4.4 2.8-.1 5.6.7 10.6.5 5 3.5 9.2 7.8 12.1s2.2 5-.1 7.8c-2.2 2.8.6 5.7 4.3 7.9 3.6 2.2 11.6-1.3 13.1.8 1.4 2.1-6.7 5.6-10.3 7s-1.5 4.3 6.5 11.4c7.8 7.2 37.5 18.8 43.4 21.5 4.6 2 21.8 5 29.2 6.1 2.4 1.6 4.7 4.7 2.3 7.4-2.7 3.1-7.6 4.6-11.8 15.6-1.1 3-3 11.5-5.5 13-5.8 3.5-13.4-5.2-16-8.6-3.2-4.3-6.4-9-9.4-11-6.1-4.4-8.6-6.1-15.1-9.5-7.6-3.7-10.2-4.7-26.1-9.7-15.9-5.1-15.9-1.4-32.6-1.5-16.8-.2-24 2.4-28.7 5.9-4.5 3.5-.6 8.7-1.3 10.6m27.1-62.3c0-5.3-4.4-9.7-9.9-9.7s-10 4.4-10 9.7c0 5.4 4.5 9.7 10 9.7s9.9-4.3 9.9-9.7m201.1 392.2V195.8h47.9v129.1h84.6V195.5c11.6-.1 47.9-.2 47.9-.2v300.2h-47.9V372.4h-84.6v123zm1065.9 1.3c.1-18.7.2-252.7.2-252.7H1369l.3-46.9s147.6-.1 178.7-.2V244h-66.5l.1 252.7zM678.4 196h-1.6c-83 1.2-86.7 83.6-86.7 84.4v220.8h47.6V371.6h81.5v123.8h47.1V280.3c0-28.5-26.6-84.3-87.9-84.3m40.4 127.4h-81.9l.3-44.4s-.5-36 41.8-36c38.6 0 40.1 36 40.1 36zm532.1-127.5-1.6.1c-83 1.2-86.8 83.6-86.8 84.4v220.8h47.8V371.6h81.5v123.8h47V280.3c0-28.5-26.6-84.4-87.9-84.4m40.5 127.5h-82l.4-44.4s-.5-36 41.8-36c38.6 0 40.1 36 40.1 36zm-172.7 149.3c0-12.9-10.5-23.4-23.4-23.4-13 0-23.4 10.5-23.4 23.4s10.4 23.4 23.4 23.4c12.9 0 23.4-10.5 23.4-23.4m-87.8-278.1h-1c-36.7.5-58.5 21.1-58.5 21.1s-3.8 3.1-7.6 3.1c-3.4 0-7.8-3.4-7.8-3.4-.2-.2-18-21-58.7-21-82.5 0-87.9 74.6-87.9 84.8v22c-.2 45.8-.5 162.1-.5 194.1 11.7 0 34.2-.1 46.4-.1-.1-41.7-.3-210.2 0-216.3.4-14.2 10.1-38.3 43.3-38.3 16.1 0 25.7 6.5 31 11.9 9 9.3 11.2 21.3 11.1 26.7v215.6h46.8c0-40.4.5-209.6.5-215.7 0-13.3 9.2-38.3 44.2-38.3 31.2 0 40.5 24.7 41 38 .1 4.8 0 112.9 0 130.1v1.7999999999999998c0 .7.2 1.5.5 2.5 1.7 11.1 11.4 19.6 22.9 19.6 12.5 0 22.3-9.7 23.3-21.8.1-.9.2-1.7.2-2.2 0-.7.4-70.3.4-129.7 0-35.4-27-84.5-89.6-84.5"/></g></g></svg>