<?xml version="1.0" encoding="UTF-8" standalone="no"?>
<!-- Created with Inkscape (http://www.inkscape.org/) -->

<svg
   version="1.1"
   id="svg1"
   width="207.10722"
   height="46.947292"
   viewBox="0 0 207.10722 46.947292"
   sodipodi:docname="Hunter.svg"
   inkscape:version="1.4.3 (0d15f75, 2025-12-25)"
   xmlns:inkscape="http://www.inkscape.org/namespaces/inkscape"
   xmlns:sodipodi="http://sodipodi.sourceforge.net/DTD/sodipodi-0.dtd"
   xmlns="http://www.w3.org/2000/svg"
   xmlns:svg="http://www.w3.org/2000/svg">
  <defs
     id="defs1" />
  <sodipodi:namedview
     id="namedview1"
     pagecolor="#505050"
     bordercolor="#eeeeee"
     borderopacity="1"
     inkscape:showpageshadow="0"
     inkscape:pageopacity="0"
     inkscape:pagecheckerboard="0"
     inkscape:deskcolor="#505050"
     inkscape:zoom="6.0655993"
     inkscape:cx="103.45227"
     inkscape:cy="64.04973"
     inkscape:window-width="1920"
     inkscape:window-height="1009"
     inkscape:window-x="-8"
     inkscape:window-y="-8"
     inkscape:window-maximized="1"
     inkscape:current-layer="svg1" />
  <g
     id="g2"
     inkscape:label="g2">
    <path
       style="fill:#28292b"
       d="M 144.49136,46.70289 C 125.99994,43.825276 126.58457,15.990962 145.2,12.964828 l 1.36,-0.221082 v 15.068127 15.068128 h 2.02881 c 4.32113,0 10.59387,-2.381823 13.86282,-5.263857 2.08085,-1.834557 2.02836,-1.850056 2.02836,0.599042 v 2.055184 l -1.6731,1.463596 c -4.46627,3.906977 -12.00209,5.951414 -18.31553,4.968924 z M 0,23.36 V 0 H 9.1199997 18.239999 V 9.6000002 19.2 h 1.92 1.92 V 9.6000002 0 h 9.12 9.12 v 23.36 23.360001 h -9.12 -9.12 v -11.52 V 23.68 h -1.92 -1.92 v 11.520001 11.52 H 9.1199997 0 Z M 51.039998,46.415065 C 44.188888,44.706394 43.519999,42.910793 43.519999,26.227996 V 13.44 h 7.199999 7.2 v 16.640001 16.64 l -2.96,-0.03276 c -1.628,-0.01801 -3.392,-0.140497 -3.92,-0.27218 z m 10.08,-16.335064 V 13.44 h 7.216401 7.216401 l -0.0964,13.200001 -0.0964,13.2 -0.867206,1.644113 c -1.864937,3.535688 -5.283105,5.235887 -10.526501,5.235887 H 61.12 Z m 17.279999,0 V 13.44 h 7.36 7.36 v 16.640001 16.64 h -7.36 -7.36 z m 17.6,-0.0337 v -16.67371 l 3.76,0.125741 c 4.314873,0.144298 6.103523,0.746722 8.187113,2.75746 2.68663,2.592685 2.60108,2.051976 2.7061,17.104209 l 0.0932,13.36 h -7.37322 -7.373213 z M 114.24,32.012942 V 17.305883 l -2.55006,-0.09294 -2.55005,-0.09294 9.51005,-8.5266262 9.51006,-8.52662652 0.0862,6.84662652 0.0862,6.8466262 h 2.87376 2.87376 v 1.76 1.76 h -2.88 -2.88 v 14.720001 14.72 h -7.04 -7.04 z m 52.15999,-1.932941 V 13.44 h 7.2 7.2 v 16.640001 16.64 h -7.2 -7.2 z M 149.12,21.416974 v -8.663026 l 1.84,0.21877 c 8.23434,0.979037 13.48648,6.97457 13.51444,15.427283 l 0.006,1.68 h -7.68 -7.67999 z m 36.93736,5.177326 c -5.09711,-2.315053 -5.16475,-9.789118 -0.11138,-12.307317 4.75142,-2.367733 9.89401,0.818413 9.89401,6.129938 0,5.040869 -5.13947,8.286258 -9.78263,6.177379 z M 201.0463,13.925572 c -2.04248,-0.887921 -2.97148,-3.934634 -1.80293,-5.9128252 1.5311,-2.5919583 5.74214,-2.5919583 7.27325,0 2.07152,3.5068032 -1.67921,7.5609302 -5.47032,5.9128252 z m 3.71629,-1.007393 c 1.91129,-1.338718 1.87721,-4.3910697 -0.0622,-5.5736284 -3.59392,-2.1913643 -7.06073,2.60156 -3.88816,5.3754494 0.99057,0.866087 2.86273,0.960007 3.95039,0.198179 z M 201.27999,10.08 V 7.6800001 h 1.376 c 1.95643,0 3.06321,1.6937832 1.63065,2.4954869 -0.47055,0.263332 -0.46987,0.371396 0.008,1.295901 0.70281,1.359069 -0.0843,1.402354 -0.88395,0.04861 -0.3119,-0.528 -0.77495,-0.96 -1.029,-0.96 -0.2999,0 -0.46191,0.336711 -0.46191,0.96 0,0.528 -0.144,0.96 -0.32,0.96 -0.18489,0 -0.32,-1.013333 -0.32,-2.4 z m 2.48839,-0.5363859 c 0.47946,-0.4794593 -0.0732,-1.2236139 -0.90868,-1.2236139 -0.70104,0 -1.0617,0.5005153 -0.81811,1.1353238 0.21472,0.55955 1.2049,0.610177 1.72679,0.08829 z"
       id="path2" />
  </g>
</svg>
