<?xml version="1.0" encoding="UTF-8" standalone="no"?>
<!-- Created with Inkscape (http://www.inkscape.org/) -->

<svg
   version="1.1"
   id="svg1"
   width="2534"
   height="1029"
   viewBox="0 0 2534 1029"
   sodipodi:docname="Niralt.svg"
   inkscape:version="1.4.3 (0d15f75, 2025-12-25)"
   xmlns:inkscape="http://www.inkscape.org/namespaces/inkscape"
   xmlns:sodipodi="http://sodipodi.sourceforge.net/DTD/sodipodi-0.dtd"
   xmlns="http://www.w3.org/2000/svg"
   xmlns:svg="http://www.w3.org/2000/svg">
  <defs
     id="defs1" />
  <sodipodi:namedview
     id="namedview1"
     pagecolor="#505050"
     bordercolor="#eeeeee"
     borderopacity="1"
     inkscape:showpageshadow="0"
     inkscape:pageopacity="0"
     inkscape:pagecheckerboard="0"
     inkscape:deskcolor="#505050"
     inkscape:zoom="0.3504341"
     inkscape:cx="707.69369"
     inkscape:cy="921.71396"
     inkscape:window-width="958"
     inkscape:window-height="1000"
     inkscape:window-x="-7"
     inkscape:window-y="0"
     inkscape:window-maximized="0"
     inkscape:current-layer="svg1" />
  <g
     id="g2"
     transform="translate(4.2804103,-1.4268007)">
    <path
       style="fill:#fdfdfd"
       d="M -4.2804084,526.55872 V 22.690647 l 3.28974313,3.118077 c 2.84878557,2.700129 3.45268817,4.17299 4.50538667,10.988206 1.504444,9.739835 5.8391012,18.249786 12.1320006,23.817969 2.515078,2.225432 9.357051,6.398739 15.204383,9.274017 12.425319,6.109837 30.604723,18.617995 33.87267,23.305754 1.25296,1.797328 6.465618,6.670569 11.583684,10.82942 10.85366,8.81951 13.832493,13.07847 19.224234,27.4857 2.17831,5.82065 5.853797,14.21095 8.167757,18.64511 2.31395,4.43416 4.04692,8.89433 3.85104,9.91148 -0.27071,1.40566 -1.84029,2.1149 -6.54195,2.95609 -7.945761,1.4216 -11.288948,3.56957 -11.288948,7.25307 0,3.20112 1.848036,5.06163 10.499998,10.5709 3.3,2.10132 9.375,7.28334 13.5,11.5156 4.125,4.23226 11.325,10.36242 16,13.62258 4.675,3.26016 12.775,9.32541 18,13.47834 17.25329,13.71322 24.51405,17.88264 35.60923,20.44827 3.78992,0.87638 8.47583,2.63949 10.41313,3.91803 7.27983,4.80441 13.40358,7.19644 51.44611,20.09562 21.46734,7.27899 40.7003,13.9389 42.73992,14.79981 4.93562,2.08329 17.26069,9.31405 19.22594,11.27929 4.39541,4.39542 -0.0836,9.67832 -14.07487,16.60121 l -8.73407,4.32161 h -12.44962 c -10.36852,0 -12.6205,0.26981 -13.47185,1.61408 -3.20771,5.06496 3.8461,8.42544 38.32822,18.2598 25.0733,7.15095 29.68827,8.76232 31.65985,11.05442 2.5568,2.97247 3.04067,7.71876 0.9627,9.44332 -0.73992,0.61408 -2.77428,1.4023 -4.52081,1.7516 -4.64194,0.92839 -4.78513,2.12552 -0.74868,6.25921 4.23841,4.34052 4.36262,5.0664 1.35115,7.89553 -3.52023,3.30709 -8.81618,5.09597 -18.26509,6.16963 -4.77824,0.54294 -9.31401,1.50694 -10.07948,2.14223 -2.44438,2.02865 -1.54689,5.78345 2.43386,10.18252 9.47497,10.47067 9.48898,12.17245 0.17564,21.33914 -8.11842,7.99059 -13.80078,11.38852 -19.04501,11.38852 -2.05104,0 -10.26244,-1.575 -18.24756,-3.5 -15.68424,-3.78105 -20.82772,-4.26645 -22.59859,-2.13268 -1.59226,1.91856 0.18209,3.17057 8.51152,6.00588 3.7831,1.28775 9.653,3.74296 13.04423,5.45601 3.39123,1.71305 13.06623,5.86766 21.5,9.23245 24.22509,9.665 43.82806,18.10915 64.2717,27.68557 21.5846,10.11089 23.43161,11.69008 26.2441,22.43875 2.80563,10.72245 2.68277,10.87141 -17.07413,20.70094 -10.0509,5.00055 -18.53945,8.57651 -21.02341,8.85649 l -4.16607,0.46957 0.60754,5.51956 c 0.51532,4.68176 1.11312,5.9322 3.93839,8.23807 2.76617,2.25763 3.21787,3.16869 2.66438,5.37395 -0.40921,1.63042 -1.35393,2.65544 -2.44742,2.65544 -2.54595,0 -4.18095,1.98077 -4.18095,5.06514 0,4.71036 3.28102,7.46478 12.44147,10.44463 4.67284,1.52006 9.19855,3.53996 10.05712,4.48867 1.44757,1.59954 1.23708,1.81565 -2.8954,2.97267 -5.73651,1.60612 -5.17831,3.20498 2.46619,7.06391 5.66767,2.86103 5.89412,2.89291 8.78077,1.2362 2.85304,-1.63742 3.15224,-1.61198 8.05646,0.68504 4.50309,2.10913 5.09382,2.74247 5.09713,5.46468 0.007,5.59601 3.12361,9.07075 10.75065,11.98521 3.81216,1.45671 8.34691,3.69303 10.07721,4.96961 2.69879,1.9911 9.1684,9.21795 9.1684,10.24151 0,0.18824 -0.73063,2.16828 -1.62362,4.40008 -1.60174,4.00314 -1.58109,5.29676 0.29099,18.23265 0.61859,4.27441 -0.25662,4.64754 -3.99807,1.70451 -2.64999,-2.08448 -4.65368,-7.30259 -4.66372,-12.14549 -0.003,-1.48004 -0.45961,-2.97159 -1.01453,-3.31455 -1.70194,-1.05186 -4.60112,0.40843 -5.99992,3.0221 -0.731,1.36589 -2.07137,2.48343 -2.97861,2.48343 -0.90723,0 -3.98119,0.69243 -6.83102,1.53874 -3.80556,1.13013 -5.1815,2.02704 -5.1815,3.37756 0,2.56882 1.48929,3.49914 9.5,5.93436 10.36433,3.15071 24.77151,11.2141 25.95064,14.524 1.49044,4.18381 -1.54085,6.47285 -9.90525,7.47983 -7.18954,0.86554 -8.3992,1.70039 -13.84207,9.55328 -2.42687,3.50144 -4.01378,3.26143 -6.00193,-0.90777 -1.03795,-2.17661 -2.38362,-3.5 -3.55893,-3.5 -1.03945,0 -5.94513,1.8 -10.9015,4 -4.95638,2.2 -9.6257,4.00168 -10.37628,4.00374 -2.9585,0.008 -7.89994,4.15792 -11.81362,9.92107 -5.00605,7.37174 -7.025,9.3052 -13.57899,13.00405 -7.49034,4.22728 -11.47207,9.16897 -11.47207,14.23786 0,3.34754 -0.60749,4.66759 -3.32048,7.2152 -4.22161,3.96427 -11.55341,7.61808 -15.28658,7.61808 -4.11268,0 -20.65835,-5.69089 -24.88512,-8.55925 -6.02399,-4.088 -9.46206,-5.54489 -13.4615,-5.70438 -6.94875,-0.2771 -8.703,4.23744 -3.17488,8.17052 1.44571,1.02858 10.72856,6.25221 20.62856,11.60807 9.9,5.35586 19.575,11.20644 21.5,13.0013 3.9358,3.66971 8.04605,5.93018 12.54038,6.89672 8.80112,1.89273 13.4001,8.55513 13.43766,19.46673 0.0296,8.59445 3.63992,21.84889 6.92571,25.42602 2.18684,2.38074 19.42015,11.47578 33.59625,17.73073 7.19338,3.17395 7.84038,4.06656 8.54867,11.79389 0.55349,6.03855 1.26187,8.00684 4.88045,13.56086 2.32814,3.57336 4.84267,8.52288 5.58785,10.99891 1.65674,5.50494 3.06998,8.25615 6.1316,11.93661 2.96559,3.56502 2.94643,5.19654 -0.1388,11.82397 -4.57595,9.82965 -4.10591,11.225 10.13176,30.0773 8.69642,11.51505 10.33963,12.85141 20.69176,16.82784 4.49169,1.72534 11.59558,4.45369 15.78641,6.06301 9.34237,3.58754 13.29535,7.26483 18.82031,17.50775 7.83297,14.52182 16.7916,23.61299 33.19056,33.6816 7.24376,4.44751 10.00701,7.03963 17.68567,16.59035 1.82394,2.26861 5.64894,5.63962 8.5,7.49114 2.85107,1.85152 6.80336,5.10957 8.78286,7.24012 3.3273,3.58117 4.83765,4.22899 20,8.57839 9.0205,2.5876 20.19539,5.207 24.83309,5.8209 8.31384,1.1005 12.28088,2.6721 18.97466,7.5171 4.74731,3.4361 17.19195,7.1774 33.09315,9.9488 l 13.5,2.353 -319.75,0.076 -319.7499984,0.076 z M 411.21959,624.89069 c 3.51315,-1.60865 5.5,-1.81836 5.5,-0.58052 0,1.01435 -3.55834,2.12113 -6.5,2.02176 -1.5633,-0.0528 -1.34495,-0.36751 1,-1.44124 z m -64.87187,-86.90776 -5.87187,-2.21253 3.16009,-1.30895 c 3.41487,-1.41449 5.08365,-3.70213 5.08365,-6.96891 0,-1.63335 0.63451,-2.06574 3.03139,-2.06574 3.53828,0 4.884,2.30459 3.05545,5.23256 -0.77228,1.23662 -0.98402,3.41654 -0.56993,5.86754 0.77564,4.59094 0.54431,4.63363 -7.88878,1.45603 z M -4.2766703,9.1768007 l -0.00374,-7.75 L 11.96959,1.5487428 C 25.386664,1.6494262 27.181823,1.8219062 22.26683,2.5381082 10.733007,4.2187914 0.69245629,8.7832024 -2.3127238,13.711916 l -1.9602085,3.214885 z M 720.46959,1.6768023 c 331.78751,-0.138407 874.71251,-0.138407 1206.50001,0 331.7875,0.1384069 60.325,0.2516489 -603.25,0.2516489 -663.57501,0 -935.03751,-0.113242 -603.25001,-0.2516489 z"
       id="path9" />
    <path
       style="fill:#fbebb9"
       d="m 635.46959,1029.7645 c 0.6875,-0.2774 1.8125,-0.2774 2.5,0 0.6875,0.2774 0.125,0.5044 -1.25,0.5044 -1.375,0 -1.9375,-0.227 -1.25,-0.5044 z m -6.9375,-1.0208 c 0.72188,-0.2889 1.58438,-0.2534 1.91667,0.079 0.33229,0.3323 -0.25834,0.5687 -1.3125,0.5253 -1.16494,-0.048 -1.4019,-0.285 -0.60417,-0.6042 z m -12,-2 c 0.72188,-0.2889 1.58438,-0.2534 1.91667,0.079 0.33229,0.3323 -0.25834,0.5687 -1.3125,0.5253 -1.16494,-0.048 -1.4019,-0.285 -0.60417,-0.6042 z m -50,-17 c 0.72188,-0.2889 1.58438,-0.2534 1.91667,0.079 0.33229,0.3323 -0.25834,0.5687 -1.3125,0.5253 -1.16494,-0.048 -1.4019,-0.285 -0.60417,-0.6042 z m -43.88818,-16.0669 -2.42432,-2.75 2.75,2.42431 c 1.5125,1.33338 2.75,2.57088 2.75,2.75 0,0.78428 -0.8098,0.14598 -3.07568,-2.42431 z m -23,-22 -2.42432,-2.75 2.75,2.42431 c 2.57029,2.26589 3.20859,3.07569 2.42432,3.07569 -0.17913,0 -1.41663,-1.2375 -2.75,-2.75 z m -29.51933,-21.5 -1.90499,-2.25 2.25,1.90499 c 2.11445,1.79022 2.70524,2.59501 1.90499,2.59501 -0.18976,0 -1.20226,-1.0125 -2.25,-2.25 z m -23.53254,-32.5 c -1.24387,-1.58605 -1.2085,-1.62143 0.37755,-0.37755 0.9625,0.75484 1.75,1.54234 1.75,1.75 0,0.82303 -0.82118,0.2933 -2.12755,-1.37245 z m -53,-37 c -1.24387,-1.58605 -1.2085,-1.62143 0.37755,-0.37755 1.66575,1.30637 2.19548,2.12755 1.37245,2.12755 -0.20766,0 -0.99516,-0.7875 -1.75,-1.75 z m -3.46746,-33.5 -1.90499,-2.25 2.25,1.90499 c 2.11445,1.79022 2.70524,2.59501 1.90499,2.59501 -0.18976,0 -1.20226,-1.0125 -2.25,-2.25 z m -91,-117 -1.90499,-2.25 2.25,1.90499 c 2.11445,1.79022 2.70524,2.59501 1.90499,2.59501 -0.18976,0 -1.20226,-1.0125 -2.25,-2.25 z m -1.65499,-17.41228 c 0.6875,-0.27741 1.8125,-0.27741 2.5,0 0.6875,0.27741 0.125,0.50439 -1.25,0.50439 -1.375,0 -1.9375,-0.22698 -1.25,-0.50439 z m -43.75,-11.71527 c 0,-0.20766 0.7875,-0.99516 1.75,-1.75 1.58606,-1.24388 1.62143,-1.2085 0.37756,0.37755 -1.30637,1.66575 -2.12756,2.19548 -2.12756,1.37245 z m 69,-13 c 0,-0.20766 0.7875,-0.99516 1.75,-1.75 1.58606,-1.24388 1.62143,-1.2085 0.37756,0.37755 -1.30637,1.66575 -2.12756,2.19548 -2.12756,1.37245 z m 15,-11 c 0,-0.20766 0.7875,-0.99516 1.75,-1.75 1.58606,-1.24388 1.62143,-1.2085 0.37756,0.37755 -1.30637,1.66575 -2.12756,2.19548 -2.12756,1.37245 z m 76.8125,-51.30556 c 0.72188,-0.28887 1.58438,-0.25335 1.91667,0.0789 0.33229,0.3323 -0.25834,0.56864 -1.3125,0.52522 -1.16494,-0.048 -1.4019,-0.28494 -0.60417,-0.60416 z m -31.0625,-10.97917 c 0.6875,-0.27741 1.8125,-0.27741 2.5,0 0.6875,0.27741 0.125,0.50439 -1.25,0.50439 -1.375,0 -1.9375,-0.22698 -1.25,-0.50439 z m 11.25,-3.59773 c 0,-0.87634 -0.7875,-1.79914 -1.75,-2.05066 -1.64009,-0.4286 -1.63812,-0.46461 0.0314,-0.57333 1.80797,-0.11773 3.4832,2.45274 2.34215,3.5938 -0.34295,0.34294 -0.62354,-0.0935 -0.62354,-0.96981 z m 6.87245,-16.48999 c -1.24387,-1.58605 -1.2085,-1.62143 0.37755,-0.37755 0.9625,0.75484 1.75,1.54234 1.75,1.75 0,0.82303 -0.82118,0.2933 -2.12755,-1.37245 z m -25.64045,-21.25 c 0,-1.925 0.2058,-2.7125 0.45733,-1.75 0.25152,0.9625 0.25152,2.5375 0,3.5 -0.25153,0.9625 -0.45733,0.175 -0.45733,-1.75 z m -41.482,-37.66228 c 0.6875,-0.27741 1.8125,-0.27741 2.5,0 0.6875,0.27741 0.125,0.50439 -1.25,0.50439 -1.375,0 -1.9375,-0.22698 -1.25,-0.50439 z m 19.44495,-1.83772 c 0.0204,-1.65 0.2445,-2.20393 0.49804,-1.23097 0.25355,0.97297 0.23687,2.32297 -0.037,3 -0.27392,0.67704 -0.48137,-0.11903 -0.46099,-1.76903 z m -20.3225,-8.25 c -1.24387,-1.58605 -1.2085,-1.62143 0.37755,-0.37755 0.9625,0.75484 1.75,1.54234 1.75,1.75 0,0.82303 -0.82118,0.2933 -2.12755,-1.37245 z m 17.94005,-0.93311 c 0.72188,-0.28887 1.58438,-0.25335 1.91667,0.0789 0.33229,0.3323 -0.25834,0.56864 -1.3125,0.52522 -1.16494,-0.048 -1.4019,-0.28494 -0.60417,-0.60416 z m -73.0625,-105.97917 c 0.6875,-0.27741 1.8125,-0.27741 2.5,0 0.6875,0.27741 0.125,0.50439 -1.25,0.50439 -1.375,0 -1.9375,-0.22698 -1.25,-0.50439 z m 20.25,-10.83772 c 1.86579,-1.925 3.61734,-3.5 3.89234,-3.5 0.275,0 -1.02655,1.575 -2.89234,3.5 -1.86578,1.925 -3.61733,3.5 -3.89233,3.5 -0.275,0 1.02655,-1.575 2.89233,-3.5 z m -0.59501,-23.75 -1.90499,-2.25 2.25,1.90499 c 1.2375,1.04774 2.25,2.06024 2.25,2.25 0,0.80025 -0.80479,0.20946 -2.59501,-1.90499 z m 4.34501,-10.41228 c 0.6875,-0.27741 1.8125,-0.27741 2.5,0 0.6875,0.27741 0.125,0.50439 -1.25,0.50439 -1.375,0 -1.9375,-0.22698 -1.25,-0.50439 z m 10.0625,-1.02083 c 0.72188,-0.28887 1.58438,-0.25335 1.91667,0.0789 0.33229,0.3323 -0.25834,0.56864 -1.3125,0.52522 -1.16494,-0.048 -1.4019,-0.28494 -0.60417,-0.60416 z m 9.59249,-15.56689 -1.90499,-2.25 2.25,1.90499 c 2.11445,1.79022 2.70524,2.59501 1.90499,2.59501 -0.18976,0 -1.20226,-1.0125 -2.25,-2.25 z m -48.13596,-45.44299 c 0.97297,-0.25354 2.32297,-0.23687 3,0.0371 0.67704,0.27393 -0.11903,0.48137 -1.76903,0.46099 -1.65,-0.0204 -2.20393,-0.2445 -1.23097,-0.49804 z m -6.45653,-0.99012 c 0.72188,-0.28887 1.58438,-0.25335 1.91667,0.0789 0.33229,0.3323 -0.25834,0.56864 -1.3125,0.52522 -1.16494,-0.048 -1.4019,-0.28494 -0.60417,-0.60416 z m 37.6875,-11.31689 c 0.99549,-1.1 2.03498,-2 2.30998,-2 0.275,0 -0.31449,0.9 -1.30998,2 -0.99548,1.1 -2.03497,2 -2.30997,2 -0.275,0 0.31449,-0.9 1.30997,-2 z m -189.55383,-104.75 -3.44617,-3.75 3.75,3.44617 c 3.49042,3.20761 4.20979,4.05383 3.44617,4.05383 -0.16711,0 -1.85461,-1.6875 -3.75,-3.75 z m -7.07372,-8 c -1.24387,-1.58605 -1.2085,-1.62143 0.37755,-0.37755 0.9625,0.75484 1.75,1.54234 1.75,1.75 0,0.82303 -0.82118,0.2933 -2.12755,-1.37245 z m -1.30816,-25.54313 c 0.37554,-0.98622 0.9347,-1.54122 1.24258,-1.23333 0.30789,0.30789 6.4e-4,1.11479 -0.68278,1.79313 -0.98762,0.98026 -1.10248,0.8654 -0.5598,-0.5598 z m -39.639974,-64.456869 -2.424314,-2.75 2.75,2.424314 c 2.570289,2.265886 3.208588,3.075686 2.424314,3.075686 -0.179128,0 -1.416628,-1.2375 -2.75,-2.75 z m -64.6923117,-64.25 c 0,-1.925 0.2057953,-2.7125 0.4573228,-1.75 0.2515276,0.9625 0.2515276,2.5375 0,3.5 -0.2515275,0.9625 -0.4573228,0.175 -0.4573228,-1.75 z M 20.532092,2.7436867 C 21.253967,2.4548161 22.116467,2.4903424 22.448758,2.8226337 22.78105,3.1549253 22.190425,3.391274 21.136258,3.347853 19.971315,3.2998694 19.734359,3.0629131 20.532092,2.7436867 Z M 938.38696,2.6768032 C 1229.979,2.5382724 1707.429,2.538272 1999.387,2.6768023 2291.3449,2.8153326 2052.7696,2.928676 1469.2196,2.9286765 885.66959,2.928677 646.79491,2.815334 938.38696,2.6768032 Z M 49.969592,1.6777598 c 12.5125,-0.1586794 32.9875,-0.1586794 45.5,0 12.512498,0.1586794 2.275,0.288508 -22.75,0.288508 -25.025,0 -35.2625,-0.1298286 -22.75,-0.288508 z"
       id="path8" />
    <path
       style="fill:#f7c629"
       d="m 624.53209,1027.7437 c 0.72188,-0.2889 1.58438,-0.2534 1.91667,0.079 0.33229,0.3323 -0.25834,0.5687 -1.3125,0.5253 -1.16494,-0.048 -1.4019,-0.285 -0.60417,-0.6042 z m -38.94005,-12.0669 c -1.24387,-1.5861 -1.2085,-1.6214 0.37755,-0.3776 0.9625,0.7549 1.75,1.5424 1.75,1.75 0,0.8231 -0.82118,0.2933 -2.12755,-1.3724 z m -16.05995,-5.9331 c 0.72188,-0.2889 1.58438,-0.2534 1.91667,0.079 0.33229,0.3323 -0.25834,0.5687 -1.3125,0.5253 -1.16494,-0.048 -1.4019,-0.285 -0.60417,-0.6042 z m -60.88818,-27.0669 -2.42432,-2.75 2.75,2.42431 c 1.5125,1.33338 2.75,2.57088 2.75,2.75 0,0.78428 -0.8098,0.14598 -3.07568,-2.42431 z m -34.05187,-29 c -1.24387,-1.58605 -1.2085,-1.62143 0.37755,-0.37755 0.9625,0.75484 1.75,1.54234 1.75,1.75 0,0.82303 -0.82118,0.2933 -2.12755,-1.37245 z m -8,-8 c -1.24387,-1.58605 -1.2085,-1.62143 0.37755,-0.37755 1.66575,1.30637 2.19548,2.12755 1.37245,2.12755 -0.20766,0 -0.99516,-0.7875 -1.75,-1.75 z m -57.94813,-46 -2.42432,-2.75 2.75,2.42431 c 2.57029,2.26589 3.20859,3.07569 2.42432,3.07569 -0.17913,0 -1.41663,-1.2375 -2.75,-2.75 z m -19.69232,-30.25 c 0,-1.925 0.2058,-2.7125 0.45733,-1.75 0.25152,0.9625 0.25152,2.5375 0,3.5 -0.25153,0.9625 -0.45733,0.175 -0.45733,-1.75 z m -13.97981,-56.5 c 0.0111,-2.2 0.21588,-2.98225 0.45507,-1.73834 0.2392,1.24391 0.23011,3.04391 -0.0202,4 -0.25029,0.95609 -0.44599,-0.0617 -0.43489,-2.26166 z m -49.17324,-51.08333 c 0.048,-1.16495 0.28494,-1.4019 0.60417,-0.60417 0.28887,0.72188 0.25334,1.58438 -0.079,1.91667 -0.33229,0.33229 -0.56864,-0.25834 -0.52522,-1.3125 z m 0.116,-6.91667 c 0.0204,-1.65 0.2445,-2.20393 0.49804,-1.23097 0.25355,0.97297 0.23687,2.32297 -0.037,3 -0.27392,0.67704 -0.48137,-0.11903 -0.46099,-1.76903 z m -5.3225,-13.25 c -1.24387,-1.58605 -1.2085,-1.62143 0.37755,-0.37755 1.66575,1.30637 2.19548,2.12755 1.37245,2.12755 -0.20766,0 -0.99516,-0.7875 -1.75,-1.75 z m -6.37245,-36.25 c 0.99549,-1.1 2.03498,-2 2.30998,-2 0.275,0 -0.31449,0.9 -1.30998,2 -0.99548,1.1 -2.03497,2 -2.30997,2 -0.275,0 0.31449,-0.9 1.30997,-2 z m -59.04112,-1.06653 c -0.36253,-0.58659 -0.44468,-1.281 -0.18255,-1.54313 0.26213,-0.26213 0.74306,0.21781 1.06875,1.06653 0.67618,1.76211 0.0999,2.07206 -0.8862,0.4766 z m 65.04112,-13.93347 c 0.99549,-1.1 2.03498,-2 2.30998,-2 0.275,0 -0.31449,0.9 -1.30998,2 -0.99548,1.1 -2.03497,2 -2.30997,2 -0.275,0 0.31449,-0.9 1.30997,-2 z m 25.5,-24.37755 c 0,-0.20766 0.7875,-0.99516 1.75,-1.75 1.58606,-1.24388 1.62143,-1.2085 0.37756,0.37755 -1.30637,1.66575 -2.12756,2.19548 -2.12756,1.37245 z m 34.50708,-6.61099 c -0.35034,-0.56686 0.0511,-0.73451 0.94098,-0.39302 1.73242,0.66479 2.04939,1.38156 0.61096,1.38156 -0.51754,0 -1.21591,-0.44484 -1.55194,-0.98854 z m -5.69458,-6.69457 c 0.72188,-0.28887 1.58438,-0.25335 1.91667,0.0789 0.33229,0.3323 -0.25834,0.56864 -1.3125,0.52522 -1.16494,-0.048 -1.4019,-0.28494 -0.60417,-0.60416 z m 14.1875,-0.69444 c 0,-0.20766 0.7875,-0.99516 1.75,-1.75 1.58606,-1.24388 1.62143,-1.2085 0.37756,0.37755 -1.30637,1.66575 -2.12756,2.19548 -2.12756,1.37245 z m 8.26903,-4.31544 c 0.97297,-0.25354 2.32297,-0.23687 3,0.0371 0.67704,0.27393 -0.11903,0.48137 -1.76903,0.46099 -1.65,-0.0204 -2.20393,-0.2445 -1.23097,-0.49804 z m 10,-21 c 0.97297,-0.25354 2.32297,-0.23687 3,0.0371 0.67704,0.27393 -0.11903,0.48137 -1.76903,0.46099 -1.65,-0.0204 -2.20393,-0.2445 -1.23097,-0.49804 z m 9.46218,-2.22685 c -0.43497,-1.66335 -0.30483,-2.05378 0.43724,-1.31171 0.5811,0.5811 0.8598,1.64682 0.61932,2.36826 -0.24965,0.74895 -0.70295,0.29565 -1.05656,-1.05655 z m -17.85876,-0.83016 c -1.24387,-1.58605 -1.2085,-1.62143 0.37755,-0.37755 1.66575,1.30637 2.19548,2.12755 1.37245,2.12755 -0.20766,0 -0.99516,-0.7875 -1.75,-1.75 z m 6.2065,-0.83333 c 0.048,-1.16495 0.28494,-1.4019 0.60417,-0.60417 0.28887,0.72188 0.25334,1.58438 -0.079,1.91667 -0.33229,0.33229 -0.56864,-0.25834 -0.52522,-1.3125 z m -29.57187,-0.40521 c -0.35034,-0.56686 0.0511,-0.73451 0.94098,-0.39302 1.73242,0.66479 2.04939,1.38156 0.61096,1.38156 -0.51754,0 -1.21591,-0.44484 -1.55194,-0.98854 z m -1.50708,-2.95244 c 0,-0.51754 0.44485,-1.21591 0.98855,-1.55194 0.56686,-0.35034 0.7345,0.0511 0.39301,0.94098 -0.66479,1.73242 -1.38156,2.04939 -1.38156,0.61096 z m 29.232,-8.05902 c 0,-1.925 0.2058,-2.7125 0.45733,-1.75 0.25152,0.9625 0.25152,2.5375 0,3.5 -0.25153,0.9625 -0.45733,0.175 -0.45733,-1.75 z m -71.0741,-71 c 0,-1.375 0.22697,-1.9375 0.50438,-1.25 0.27741,0.6875 0.27741,1.8125 0,2.5 -0.27741,0.6875 -0.50438,0.125 -0.50438,-1.25 z m 5.8421,-5.05902 c 0,-0.58246 0.45,-0.7809 1,-0.44098 0.55,0.33992 1,0.81648 1,1.05902 0,0.24254 -0.45,0.44098 -1,0.44098 -0.55,0 -1,-0.47656 -1,-1.05902 z m -1.12755,-7.69098 c -1.24387,-1.58605 -1.2085,-1.62143 0.37755,-0.37755 1.66575,1.30637 2.19548,2.12755 1.37245,2.12755 -0.20766,0 -0.99516,-0.7875 -1.75,-1.75 z m -4.71455,-8.25 c 0,-1.375 0.22697,-1.9375 0.50438,-1.25 0.27741,0.6875 0.27741,1.8125 0,2.5 -0.27741,0.6875 -0.50438,0.125 -0.50438,-1.25 z m 1.5921,-5.66228 c 0.6875,-0.27741 1.8125,-0.27741 2.5,0 0.6875,0.27741 0.125,0.50439 -1.25,0.50439 -1.375,0 -1.9375,-0.22698 -1.25,-0.50439 z m 34.17432,-42.08772 -2.42432,-2.75 2.75,2.42431 c 2.57029,2.26589 3.20859,3.07569 2.42432,3.07569 -0.17913,0 -1.41663,-1.2375 -2.75,-2.75 z m -74.42432,-58.25 c 0.99549,-1.1 2.03498,-2 2.30998,-2 0.275,0 -0.31449,0.9 -1.30998,2 -0.99548,1.1 -2.03497,2 -2.30997,2 -0.275,0 0.31449,-0.9 1.30997,-2 z m 8.90499,-25.25 -1.90499,-2.25 2.25,1.90499 c 1.2375,1.04774 2.25,2.06024 2.25,2.25 0,0.80025 -0.80479,0.20946 -2.59501,-1.90499 z m 4.40751,-14.43311 c 0.72188,-0.28887 1.58438,-0.25335 1.91667,0.0789 0.33229,0.3323 -0.25834,0.56864 -1.3125,0.52522 -1.16494,-0.048 -1.4019,-0.28494 -0.60417,-0.60416 z m 19.1875,-6.81689 c 1.29175,-1.375 2.57363,-2.5 2.84863,-2.5 0.275,0 -0.55688,1.125 -1.84863,2.5 -1.29174,1.375 -2.57363,2.5 -2.84863,2.5 -0.275,0 0.55689,-1.125 1.84863,-2.5 z m 0.40499,-5.75 -1.90499,-2.25 2.25,1.90499 c 2.11445,1.79022 2.70524,2.59501 1.90499,2.59501 -0.18976,0 -1.20226,-1.0125 -2.25,-2.25 z m -68.40499,-47.19098 c 0,-0.79254 0.40804,-1.69316 0.90674,-2.00138 0.49871,-0.30822 0.67123,0.34022 0.38337,1.44098 -0.61061,2.33499 -1.29011,2.63015 -1.29011,0.5604 z m 20.8125,-2.24213 c 0.72188,-0.28887 1.58438,-0.25335 1.91667,0.0789 0.33229,0.3323 -0.25834,0.56864 -1.3125,0.52522 -1.16494,-0.048 -1.4019,-0.28494 -0.60417,-0.60416 z m -16.5625,-1.00621 c 0.9625,-0.25153 2.5375,-0.25153 3.5,0 0.9625,0.25152 0.175,0.45732 -1.75,0.45732 -1.925,0 -2.7125,-0.2058 -1.75,-0.45732 z M 148.59204,219.6768 c -1.24387,-1.58605 -1.2085,-1.62143 0.37755,-0.37755 0.9625,0.75484 1.75,1.54234 1.75,1.75 0,0.82303 -0.82118,0.2933 -2.12755,-1.37245 z m -5,-4 c -1.24387,-1.58605 -1.2085,-1.62143 0.37755,-0.37755 0.9625,0.75484 1.75,1.54234 1.75,1.75 0,0.82303 -0.82118,0.2933 -2.12755,-1.37245 z m -23,-17 c -1.24387,-1.58605 -1.2085,-1.62143 0.37755,-0.37755 0.9625,0.75484 1.75,1.54234 1.75,1.75 0,0.82303 -0.82118,0.2933 -2.12755,-1.37245 z m -9,-9 c -1.24387,-1.58605 -1.2085,-1.62143 0.37755,-0.37755 0.9625,0.75484 1.75,1.54234 1.75,1.75 0,0.82303 -0.82118,0.2933 -2.12755,-1.37245 z m -21.714554,-19.25 c 0,-1.375 0.226974,-1.9375 0.504386,-1.25 0.277413,0.6875 0.277413,1.8125 0,2.5 -0.277412,0.6875 -0.504386,0.125 -0.504386,-1.25 z m -6.23358,-60.75 -2.424314,-2.75 2.75,2.42431 c 1.5125,1.33338 2.75,2.57088 2.75,2.75 0,0.78428 -0.8098,0.14598 -3.075686,-2.42431 z m -11.05187,-9 c -1.24387,-1.586055 -1.2085,-1.621425 0.377556,-0.37755 0.9625,0.75484 1.75,1.54234 1.75,1.75 0,0.82303 -0.821186,0.2933 -2.127556,-1.37245 z m -8,-7.999999 c -1.24387,-1.586056 -1.2085,-1.621426 0.377556,-0.377556 0.9625,0.754845 1.75,1.542345 1.75,1.75 0,0.823035 -0.821186,0.293304 -2.127556,-1.372444 z m -51,-34 c -1.24387,-1.586056 -1.2085,-1.621426 0.377556,-0.377556 0.9625,0.754845 1.75,1.542345 1.75,1.75 0,0.823035 -0.821186,0.293304 -2.127556,-1.372444 z m -11.9999997,-31 c -1.24387063,-1.586056 -1.20850031,-1.621426 0.3775553,-0.377556 1.665748,1.30637 2.1954789,2.127556 1.3724447,2.127556 -0.2076554,0 -0.9951554,-0.7875 -1.75,-1.75 z M -4.201461,19.843467 c 0.047984,-1.164943 0.2849403,-1.401899 0.6041667,-0.604166 0.2888706,0.721875 0.2533443,1.584375 -0.078947,1.916666 -0.3322917,0.332292 -0.5686404,-0.258333 -0.5252197,-1.3125 z M 23.532092,2.7436867 C 24.253967,2.4548161 25.116467,2.4903424 25.448758,2.8226337 25.78105,3.1549253 25.190425,3.391274 24.136258,3.347853 22.971315,3.2998694 22.734359,3.0629131 23.532092,2.7436867 Z M 300.04329,2.6771099 c 20.25303,-0.1513062 53.10303,-0.1512326 73,1.637e-4 19.89696,0.1513962 3.3263,0.2751922 -36.8237,0.2751022 -40.15,-9e-5 -56.42934,-0.1239596 -36.1763,-0.2752659 z"
       id="path7" />
    <path
       style="fill:#f5bb00"
       d="m 628.71959,1028.3374 c -23.56207,-3.5902 -35.94247,-7.474 -44.59866,-13.991 -3.41569,-2.5716 -5.74857,-3.3242 -14,-4.5163 -5.44574,-0.7868 -16.20134,-3.2601 -23.90134,-5.4963 -7.7,-2.2362 -14.81095,-4.2929 -15.80212,-4.57036 -0.99117,-0.27748 -3.24117,-2.09521 -5,-4.0394 -1.75883,-1.94419 -5.75902,-5.28029 -8.8893,-7.41355 -3.13028,-2.13326 -7.18028,-5.73068 -9,-7.99427 -7.80251,-9.70572 -10.4607,-12.09602 -19.90772,-17.90142 -11.71044,-7.19632 -21.88727,-17.00439 -26.90086,-25.92609 -5.7154,-10.17059 -10.32162,-16.78768 -13.29985,-19.10602 -1.53992,-1.19872 -9.79208,-4.78799 -18.33812,-7.97616 -8.54605,-3.18817 -16.67438,-6.85036 -18.06296,-8.1382 -2.15826,-2.00168 -11.19197,-13.48421 -19.04907,-24.2128 -2.90302,-3.96396 -2.96173,-10.3133 -0.14639,-15.83181 3.05619,-5.99064 2.84915,-9.71087 -0.79948,-14.36534 -1.69507,-2.16237 -3.87285,-6.40658 -4.8395,-9.43158 -0.96664,-3.025 -2.97835,-7.3 -4.47046,-9.5 -4.6171,-6.80758 -5.99417,-10.23138 -5.99417,-14.90329 0,-8.30885 -0.6075,-8.84811 -21.43657,-19.02868 -10.48489,-5.12467 -20.07638,-10.41592 -21.31444,-11.75833 -2.94016,-3.18799 -6.23933,-15.9382 -6.7064,-25.91797 -0.56125,-11.99246 -4.66626,-17.13778 -15.93256,-19.97025 -3.15319,-0.79275 -6.52843,-2.6842 -9.50309,-5.32544 -2.53722,-2.25282 -13.3239,-8.80017 -23.9704,-14.54967 -19.82441,-10.70589 -23.54159,-13.64846 -21.0436,-16.65835 2.00822,-2.41976 9.33642,-1.03674 15.38946,2.90438 6.03258,3.92781 8.85522,5.2289 18.0176,8.30523 9.39985,3.15605 11.71517,3.0134 19.22128,-1.18425 7.21565,-4.03522 10.26937,-8.07071 10.27498,-13.57839 0.003,-3.1155 0.71429,-4.29046 4.74273,-7.83644 2.60644,-2.29428 6.09394,-4.74786 7.75,-5.45239 4.14968,-1.7654 7.79454,-5.3873 11.9349,-11.85972 4.24666,-6.63861 7.58364,-9.40962 12.42526,-10.31792 2.00545,-0.37622 6.7846,-2.18805 10.62035,-4.02628 8.96835,-4.29797 10.71456,-4.2765 12.82911,0.15776 1.94881,4.0867 3.0565,4.32888 5.71743,1.25 7.8817,-9.11967 8.28524,-9.40419 14.33912,-10.10977 9.24861,-1.07793 12.7749,-4.06592 10.55312,-8.94218 -1.45443,-3.19213 -14.02477,-10.21125 -25.40734,-14.18715 -10.30429,-3.59926 -11.85048,-5.63125 -6.11002,-8.02977 1.94967,-0.81462 4.89347,-1.48113 6.54178,-1.48113 2.09019,0 3.35543,-0.68076 4.18182,-2.25 2.80566,-5.32771 5.48404,-4.9127 6.36872,0.98683 0.9431,6.28902 2.92936,9.90806 6.43203,11.71935 2.74795,1.42103 2.90824,1.38315 3.46065,-0.81784 0.31859,-1.26933 0.13933,-3.84176 -0.39834,-5.71651 -1.37705,-4.8015 -1.21434,-10.99932 0.4096,-15.60205 1.32863,-3.76576 1.27065,-4.08796 -1.37398,-7.63486 -4.17077,-5.5937 -9.4456,-9.33298 -16.45706,-11.66624 -7.63206,-2.53978 -9.63698,-4.5563 -10.28995,-10.34946 -0.47778,-4.2388 -0.72265,-4.51965 -6.23983,-7.15662 -5.47688,-2.61771 -5.85936,-2.66812 -8.26816,-1.08982 -2.39722,1.57072 -2.81117,1.52857 -8.14191,-0.82893 -6.46092,-2.85733 -7.23679,-5.06726 -2.11629,-6.02787 6.89315,-1.29316 3.63619,-5.11213 -7.29154,-8.54974 -9.85695,-3.10077 -12.40321,-5.1953 -12.01199,-9.88092 0.27369,-3.27786 0.6164,-3.66563 3.48536,-3.94359 1.75001,-0.16955 6.4367,0.82365 10.41487,2.20712 3.97817,1.38347 7.62265,2.2746 8.09885,1.9803 0.4762,-0.29431 0.57019,-2.11094 0.20887,-4.03694 -0.41222,-2.19731 -0.16145,-4.42767 0.67314,-5.98712 1.61164,-3.01138 0.31736,-5.69205 -2.98473,-6.18185 -2.8657,-0.42508 -4.71368,1.18103 -5.41951,4.71019 -0.39446,1.97226 -1.62184,3.33879 -4.02165,4.47757 -4.57261,2.16985 -4.98064,2.08586 -4.23816,-0.87242 0.50149,-1.99809 -0.0895,-3.23128 -2.89159,-6.03333 -1.93706,-1.93705 -3.52192,-4.35067 -3.52192,-5.36358 0,-1.01292 -0.25597,-3.13542 -0.56883,-4.71667 -0.54347,-2.74685 -0.39861,-2.88149 3.25,-3.02057 2.38343,-0.0909 7.76552,-2.12041 14.31883,-5.39956 5.775,-2.88969 13.47361,-6.73923 17.10802,-8.55454 9.88619,-4.93793 10.86792,-9.55493 4.90784,-23.08116 -1.64265,-3.72795 -8.7597,-10.31917 -11.1424,-10.31917 -0.45456,0 -9.40852,-4.04352 -19.8977,-8.98561 -10.48918,-4.94209 -30.41225,-13.53167 -44.2735,-19.08797 -13.86124,-5.55629 -28.14584,-11.58962 -31.74355,-13.40741 -3.59771,-1.81778 -10.12271,-4.54687 -14.5,-6.06464 -4.37729,-1.51777 -8.59408,-3.34236 -9.37065,-4.05463 -1.19904,-1.09978 -1.04504,-1.46222 1.02137,-2.40374 1.98136,-0.90276 5.56217,-0.35529 19.27927,2.94766 9.26528,2.23099 18.03066,4.04646 19.47863,4.03438 4.46976,-0.0373 11.26677,-3.80517 17.58683,-9.74914 11.32178,-10.64807 11.78179,-13.51804 3.60432,-22.48726 -5.50326,-6.03608 -6.75978,-8.91472 -4.65409,-10.66229 0.79726,-0.66166 6.09492,-1.8505 11.77258,-2.64186 8.19675,-1.14247 11.12717,-2.00512 14.22711,-4.18816 6.36707,-4.48382 6.62798,-5.60808 2.32435,-10.0154 -2.05064,-2.10004 -3.72843,-4.06555 -3.72843,-4.3678 0,-0.30226 1.9125,-1.12052 4.25,-1.81836 4.76614,-1.42289 5.71258,-2.42554 5.73469,-6.07526 0.0198,-3.26857 -2.34451,-6.5901 -6.05774,-8.51029 -1.62341,-0.83949 -14.98359,-4.93223 -29.6893,-9.09496 -29.52424,-8.3574 -36.73765,-11.37475 -36.73765,-15.36726 v -2.5 l 10.18703,0.28184 c 8.13081,0.22495 11.40294,-0.12777 16.21102,-1.74749 12.91897,-4.35209 24.10195,-12.2914 24.10195,-17.11107 0,-2.83204 -2.76434,-5.14498 -12.47626,-10.43895 -11.01875,-6.00633 -11.64866,-6.24425 -56.02374,-21.16094 -26.98747,-9.07184 -38.83733,-13.54207 -43.78961,-16.51914 -3.73429,-2.24487 -9.97855,-4.93686 -13.87614,-5.9822 -12.62642,-3.38643 -18.19394,-6.52206 -33.33425,-18.77388 -4.95,-4.00564 -13.5,-10.46228 -19,-14.34809 -5.5,-3.88582 -12.94805,-10.13185 -16.55122,-13.88008 -3.60318,-3.74823 -10.35318,-9.40359 -15.000003,-12.56748 -7.303258,-4.97257 -8.490639,-6.18482 -8.757543,-8.94096 -0.39681,-4.0976 1.98185,-5.66143 11.145736,-7.32769 l 6.83697,-1.24315 -0.64132,-3.41853 c -0.35272,-1.88019 -1.97604,-5.68223 -3.60737,-8.44898 -3.15171,-5.34531 -6.852924,-13.78517 -8.934459,-20.37321 -1.581729,-5.00616 -5.562463,-13.00164 -8.35097,-16.7733 -1.167452,-1.57906 -5.951505,-5.93787 -10.63123,-9.68623 C 72.048457,99.71891 66.908067,94.892607 65.305093,92.742154 61.611343,87.786844 41.092216,73.911029 29.262136,68.368534 13.278555,60.880089 5.4925961,50.510569 4.0210232,34.751839 3.4870834,29.034003 3.1078734,28.197598 -0.03864397,25.797632 -3.2684478,23.334141 -3.4749146,22.844811 -3.0131464,18.748015 -2.7402301,16.32671 -1.7173061,13.462061 -0.73998199,12.38213 2.2240525,9.1069089 11.082465,5.3659006 18.861878,4.1040419 24.542077,3.1826859 311.61106,2.9879811 1277.9696,3.2500513 l 1251.75,0.3394665 V 517.00816 1030.4268 l -944.25,-0.092 c -923.20505,-0.09 -944.5286,-0.1348 -956.75001,-1.997 z M 961.59125,878.86578 c 34.22207,-5.02632 63.42695,-23.27031 86.33915,-53.9352 16.7629,-22.43493 27.8804,-47.82095 34.0677,-77.79141 2.0993,-10.16834 2.1098,-11.12846 2.4464,-222.71237 0.2974,-187.01638 0.1519,-214.11896 -1.2133,-226 -2.8272,-24.60567 -7.3839,-41.73359 -15.5629,-58.5 -14.6662,-30.06441 -39.2697,-46.85781 -73.94871,-50.47456 -5.225,-0.54493 -26.02892,-0.99858 -46.23095,-1.00811 l -36.73094,-0.0173 -0.49078,2.25 c -1.17985,5.40913 -16.61217,115.14023 -16.34457,116.21768 0.21522,0.86658 3.41831,0.45404 11.60776,-1.49501 16.50827,-3.92889 22.71132,-2.33943 27.42495,7.02733 l 2.26453,4.5 v 206.5 206.5 l -2.1973,8.23202 c -3.6087,13.51966 -9.24433,21.03183 -19.25189,25.66232 -4.21848,1.95189 -6.57718,2.12907 -32.2991,2.4262 l -27.74829,0.32055 -0.25171,-288.82055 -0.25171,-288.82054 h -74.5 -74.5 l -0.25143,345.75 -0.25143,345.75 h 123.62309 c 106.82927,0 125.06692,-0.21206 134.25143,-1.56102 z M 1404.843,535.1768 c 31.1266,-189.8875 56.4058,-345.5875 56.1761,-346 -0.2296,-0.4125 -43.816,-0.75 -96.8585,-0.75 h -96.441 v -59 -58.999999 h -74 -74 v 115.999999 116 h 86.519 86.5191 l -0.5134,2.25 c -0.5505,2.41258 -99.5247,574.52142 -99.5247,575.29077 0,0.25258 34.9942,0.45923 77.7649,0.45923 h 77.7649 z m 387.8766,57.30122 c 0,-249.64442 -0.1986,-289.45213 -1.493,-299.25 -6.6972,-50.69257 -31.5046,-82.85454 -74.507,-96.59564 -24.2859,-7.76037 -35.0155,-8.36722 -141.5,-8.00308 l -87,0.2975 -0.2583,56.75 -0.2582,56.75 62.2582,0.0198 c 35.365,0.0112 65.1931,0.44416 69.0524,1.00218 14.0661,2.03384 21.0723,8.68967 23.6127,22.43185 0.7739,4.1862 1.0932,86.0392 1.0932,280.22982 V 880.4268 h 74.5 74.5 z m 467,-58.05122 v -346 h -102 -102 v 57 57 h 27.5 27.5 v 232 232 h -27.5 -27.5 v 57 57 h 102 102 z M 415.46959,626.43781 c 1.34904,-0.007 2.25,-0.62422 2.25,-1.54239 0,-2.68549 -2.66372,-2.68223 -7.65154,0.009 l -4.84846,2.61637 4,-0.53616 c 2.2,-0.29489 5.0125,-0.54112 6.25,-0.54717 z M 2006.4721,385.1768 l -0.2525,-196.25 -74.75,-0.25637 -74.75,-0.25636 V 384.92043 581.4268 h 75.0025 75.0025 z M 581.71959,247.97249 v -35.45431 l 6.75,-0.29569 6.75,-0.29569 v -6.5 -6.5 l -20.25,-0.2707 -20.25,-0.27071 v 7.02071 7.0207 h 6.5 6.5 v 35.5 35.5 h 7 7 z m 37.23123,12.85635 0.26877,-22.59796 4.32833,18.84796 c 2.38059,10.36638 4.76043,20.53546 5.28855,22.59796 l 0.96021,3.75 h 5.4424 c 5.10095,0 5.48564,-0.17224 6.13145,-2.74536 0.37897,-1.50995 2.5961,-11.74745 4.92696,-22.75 l 4.23792,-20.00464 0.0921,22.75 0.0921,22.75 h 7 7 v -42.5 -42.5 h -9.27623 -9.27623 l -5.45091,29.25 -5.45091,29.25 -5.7243,-29 c -3.14836,-15.95 -5.74614,-29.1125 -5.77285,-29.25 -0.0267,-0.1375 -4.32357,-0.25 -9.54857,-0.25 h -9.5 v 42.5 42.5 h 6.98123 6.98122 z"
       id="path6" />
    <path
       style="fill:#b78c00"
       d="m 951.53209,879.74369 c 0.72188,-0.28887 1.58438,-0.25335 1.91667,0.0789 0.33229,0.3323 -0.25834,0.56864 -1.3125,0.52522 -1.16494,-0.048 -1.4019,-0.28494 -0.60417,-0.60416 z m 74.18751,-30.69444 c 0,-0.20766 0.7875,-0.99516 1.75,-1.75 1.586,-1.24388 1.6214,-1.2085 0.3775,0.37755 -1.3063,1.66575 -2.1275,2.19548 -2.1275,1.37245 z m 10,-10 c 0,-0.20766 0.7875,-0.99516 1.75,-1.75 1.586,-1.24388 1.6214,-1.2085 0.3775,0.37755 -1.3063,1.66575 -2.1275,2.19548 -2.1275,1.37245 z m 48.0789,-111.20578 c 0.048,-1.16495 0.285,-1.4019 0.6042,-0.60417 0.2889,0.72188 0.2533,1.58438 -0.079,1.91667 -0.3323,0.33229 -0.5687,-0.25834 -0.5253,-1.3125 z m -148.99996,-3 c 0.048,-1.16495 0.28494,-1.4019 0.60417,-0.60417 0.28887,0.72188 0.25334,1.58438 -0.0789,1.91667 -0.33229,0.33229 -0.56864,-0.25834 -0.52522,-1.3125 z m 1071.16856,-339.1603 -0.2475,-196.24364 -74.75,-0.26283 -74.75,-0.26283 74.7814,-0.24353 c 59.0852,-0.19242 74.8811,0.0188 75.2565,1.00646 0.2613,0.6875 0.3585,89.225 0.2161,196.75 l -0.2591,195.5 z M 1083.8775,309.4268 c 0,-1.375 0.227,-1.9375 0.5044,-1.25 0.2774,0.6875 0.2774,1.8125 0,2.5 -0.2774,0.6875 -0.5044,0.125 -0.5044,-1.25 z m 707.921,-6.58333 c 0.048,-1.16495 0.285,-1.4019 0.6042,-0.60417 0.2889,0.72188 0.2533,1.58438 -0.079,1.91667 -0.3323,0.33229 -0.5687,-0.25834 -0.5253,-1.3125 z m -176.2664,-0.0998 c 0.7219,-0.28887 1.5844,-0.25335 1.9167,0.0789 0.3322,0.3323 -0.2584,0.56864 -1.3125,0.52522 -1.165,-0.048 -1.4019,-0.28494 -0.6042,-0.60416 z m -127.3249,-57.31689 0.012,-56.5 91.25,-0.008 91.2501,-0.008 -90.9918,0.2632 -90.9918,0.26319 -0.2706,56.24474 -0.2707,56.24474 z m -920.03621,2.5 c -3.3e-4,-19.8 0.13324,-28.04173 0.29681,-18.31496 0.16358,9.72676 0.16384,25.92676 6e-4,36 -0.16325,10.07323 -0.29709,2.11496 -0.29741,-17.68504 z m 49.5486,11 c 0,-13.65833 0.25462,-24.57871 0.56583,-24.26751 0.67587,0.67588 0.58313,47.95189 -0.0954,48.63042 -0.25874,0.25873 -0.47043,-10.70458 -0.47043,-24.36291 z m -22.67992,-53.5 c 0,-3.575 0.18149,-5.0375 0.40332,-3.25 0.22182,1.7875 0.22182,4.7125 0,6.5 -0.22183,1.7875 -0.40332,0.325 -0.40332,-3.25 z m 769.17993,-16 -97,-0.51493 96.691,-0.24253 c 63.6448,-0.15965 96.9022,0.0992 97.309,0.75746 0.3399,0.55 0.479,0.89086 0.309,0.75746 -0.17,-0.13339 -43.959,-0.47425 -97.309,-0.75746 z m -622.75001,-0.74962 c 20.4875,-0.1511 54.0125,-0.1511 74.5,0 20.4875,0.15109 3.725,0.27471 -37.25,0.27471 -40.975,0 -57.7375,-0.12362 -37.25,-0.27471 z m 187.93378,0.001 c 10.55108,-0.16184 28.10108,-0.16207 39,-5.1e-4 10.89892,0.16156 2.26622,0.29398 -19.18378,0.29426 -21.45,2.9e-4 -30.3673,-0.1319 -19.81622,-0.29375 z m 1177.06623,-0.001 c 28.1875,-0.1476 74.3125,-0.1476 102.5,0 28.1875,0.1476 5.125,0.26837 -51.25,0.26837 -56.375,0 -79.4375,-0.12077 -51.25,-0.26837 z"
       id="path5" />
    <path
       style="fill:#926f00"
       d="m 1031.7196,842.9268 c 1.8658,-1.925 3.6173,-3.5 3.8923,-3.5 0.275,0 -1.0265,1.575 -2.8923,3.5 -1.8658,1.925 -3.6173,3.5 -3.8923,3.5 -0.275,0 1.0265,-1.575 2.8923,-3.5 z m 16.9243,-629.25 -2.4243,-2.75 2.75,2.42431 c 1.5125,1.33338 2.75,2.57088 2.75,2.75 0,0.78428 -0.8098,0.14598 -3.0757,-2.42431 z"
       id="path4" />
    <path
       style="fill:#775a00"
       d="m 704.18229,879.1768 c -0.26099,-0.6875 -0.35872,-156.275 -0.21717,-345.75 l 0.25735,-344.5 0.24856,345.24594 0.24856,345.24593 119.25,0.25817 119.25,0.25817 -119.28138,0.24589 c -94.68687,0.1952 -119.37923,-0.0118 -119.75592,-1.0041 z m 241.29896,0.54274 c 1.24391,-0.23919 3.04391,-0.23011 4,0.0202 0.95609,0.25029 -0.0617,0.446 -2.26166,0.4349 -2.2,-0.0111 -2.98225,-0.21589 -1.73834,-0.45508 z m 247.23815,-0.0427 c -3e-4,-0.67969 56.3936,-0.67173 128.0002,0.0181 15.125,0.1457 -7.4875,0.36999 -50.25,0.49843 -42.7625,0.12844 -77.7501,-0.10398 -77.7502,-0.51648 z m 487.2502,3.9e-4 c 20.2125,-0.15127 53.2875,-0.15127 73.5,0 20.2125,0.15126 3.675,0.27502 -36.75,0.27502 -40.425,0 -56.9625,-0.12376 -36.75,-0.27502 z m 426.5,-1.9e-4 c 28.1875,-0.1476 74.3125,-0.1476 102.5,0 28.1875,0.1476 5.125,0.26837 -51.25,0.26837 -56.375,0 -79.4375,-0.12077 -51.25,-0.26837 z M 957.53209,878.74369 c 0.72188,-0.28887 1.58438,-0.25335 1.91667,0.0789 0.33229,0.3323 -0.25834,0.56864 -1.3125,0.52522 -1.16494,-0.048 -1.4019,-0.28494 -0.60417,-0.60416 z m 397.26641,-43.90022 c 0.048,-1.16495 0.285,-1.4019 0.6042,-0.60417 0.2889,0.72188 0.2533,1.58438 -0.079,1.91667 -0.3323,0.33229 -0.5687,-0.25834 -0.5253,-1.3125 z m 1,-6 c 0.048,-1.16495 0.285,-1.4019 0.6042,-0.60417 0.2889,0.72188 0.2533,1.58438 -0.079,1.91667 -0.3323,0.33229 -0.5687,-0.25834 -0.5253,-1.3125 z m -147,-42 c 0.048,-1.16495 0.285,-1.4019 0.6042,-0.60417 0.2889,0.72188 0.2533,1.58438 -0.079,1.91667 -0.3323,0.33229 -0.5687,-0.25834 -0.5253,-1.3125 z m 155,-7 c 0.048,-1.16495 0.285,-1.4019 0.6042,-0.60417 0.2889,0.72188 0.2533,1.58438 -0.079,1.91667 -0.3323,0.33229 -0.5687,-0.25834 -0.5253,-1.3125 z m 1,-6 c 0.048,-1.16495 0.285,-1.4019 0.6042,-0.60417 0.2889,0.72188 0.2533,1.58438 -0.079,1.91667 -0.3323,0.33229 -0.5687,-0.25834 -0.5253,-1.3125 z m 1,-6 c 0.048,-1.16495 0.285,-1.4019 0.6042,-0.60417 0.2889,0.72188 0.2533,1.58438 -0.079,1.91667 -0.3323,0.33229 -0.5687,-0.25834 -0.5253,-1.3125 z M 853.18214,766.1768 c -0.26108,-0.6875 -0.35945,-130.85 -0.2186,-289.25 l 0.25608,-288 0.49999,289.25001 c 0.27499,159.0875 0.37336,289.25 0.2186,289.25 -0.15476,-1e-5 -0.495,-0.56251 -0.75607,-1.25001 z m 15.8418,0.50324 c 5.9424,-0.1771 15.3924,-0.17644 21,0.001 5.60761,0.17792 0.74565,0.32282 -10.80435,0.322 -11.55,-8.1e-4 -16.13804,-0.14638 -10.19565,-0.32348 z m 32.50815,0.0637 c 0.72188,-0.28887 1.58438,-0.25335 1.91667,0.0789 0.33229,0.3323 -0.25834,0.56864 -1.3125,0.52522 -1.16494,-0.048 -1.4019,-0.28494 -0.60417,-0.60416 z m 1166.93751,-0.0643 c 7.2875,-0.17086 19.2125,-0.17086 26.5,0 7.2875,0.17086 1.325,0.31066 -13.25,0.31066 -14.575,0 -20.5375,-0.1398 -13.25,-0.31066 z m 42.7415,-233.2526 c 0,-127.325 0.1163,-179.4125 0.2585,-115.75 0.1421,63.6625 0.1421,167.8375 0,231.5 -0.1422,63.6625 -0.2585,11.575 -0.2585,-115.75 z m -1028.3336,201 c 0,-1.375 0.227,-1.9375 0.5044,-1.25 0.2774,0.6875 0.2774,1.8125 0,2.5 -0.2774,0.6875 -0.5044,0.125 -0.5044,-1.25 z m 134.921,0.41667 c 0.048,-1.16495 0.285,-1.4019 0.6042,-0.60417 0.2889,0.72188 0.2533,1.58438 -0.079,1.91667 -0.3323,0.33229 -0.5687,-0.25834 -0.5253,-1.3125 z m -282.99996,-6 c 0.048,-1.16495 0.28494,-1.4019 0.60417,-0.60417 0.28887,0.72188 0.25334,1.58438 -0.0789,1.91667 -0.33229,0.33229 -0.56864,-0.25834 -0.52522,-1.3125 z M 1083.992,722.4268 c 0,-2.475 0.195,-3.4875 0.4333,-2.25 0.2384,1.2375 0.2384,3.2625 0,4.5 -0.2383,1.2375 -0.4333,0.225 -0.4333,-2.25 z m 288.8065,2.41667 c 0.048,-1.16495 0.285,-1.4019 0.6042,-0.60417 0.2889,0.72188 0.2533,1.58438 -0.079,1.91667 -0.3323,0.33229 -0.5687,-0.25834 -0.5253,-1.3125 z m 2,-12 c 0.048,-1.16495 0.285,-1.4019 0.6042,-0.60417 0.2889,0.72188 0.2533,1.58438 -0.079,1.91667 -0.3323,0.33229 -0.5687,-0.25834 -0.5253,-1.3125 z m -148,-30 c 0.048,-1.16495 0.285,-1.4019 0.6042,-0.60417 0.2889,0.72188 0.2533,1.58438 -0.079,1.91667 -0.3323,0.33229 -0.5687,-0.25834 -0.5253,-1.3125 z m 156,-19 c 0.048,-1.16495 0.285,-1.4019 0.6042,-0.60417 0.2889,0.72188 0.2533,1.58438 -0.079,1.91667 -0.3323,0.33229 -0.5687,-0.25834 -0.5253,-1.3125 z m 1,-6 c 0.048,-1.16495 0.285,-1.4019 0.6042,-0.60417 0.2889,0.72188 0.2533,1.58438 -0.079,1.91667 -0.3323,0.33229 -0.5687,-0.25834 -0.5253,-1.3125 z m 1,-6 c 0.048,-1.16495 0.285,-1.4019 0.6042,-0.60417 0.2889,0.72188 0.2533,1.58438 -0.079,1.91667 -0.3323,0.33229 -0.5687,-0.25834 -0.5253,-1.3125 z m -149,-21 c 0.048,-1.16495 0.285,-1.4019 0.6042,-0.60417 0.2889,0.72188 0.2533,1.58438 -0.079,1.91667 -0.3323,0.33229 -0.5687,-0.25834 -0.5253,-1.3125 z m 157,-28 c 0.048,-1.16495 0.285,-1.4019 0.6042,-0.60417 0.2889,0.72188 0.2533,1.58438 -0.079,1.91667 -0.3323,0.33229 -0.5687,-0.25834 -0.5253,-1.3125 z m 1,-6 c 0.048,-1.16495 0.285,-1.4019 0.6042,-0.60417 0.2889,0.72188 0.2533,1.58438 -0.079,1.91667 -0.3323,0.33229 -0.5687,-0.25834 -0.5253,-1.3125 z M 1857.2097,385.4268 c 0,-108.075 0.1169,-152.2875 0.2598,-98.25 0.143,54.0375 0.143,142.4625 0,196.5 -0.1429,54.0375 -0.2598,9.825 -0.2598,-98.25 z m -612.4112,193.41667 c 0.048,-1.16495 0.285,-1.4019 0.6042,-0.60417 0.2889,0.72188 0.2533,1.58438 -0.079,1.91667 -0.3323,0.33229 -0.5687,-0.25834 -0.5253,-1.3125 z m 157,-31 c 0.048,-1.16495 0.285,-1.4019 0.6042,-0.60417 0.2889,0.72188 0.2533,1.58438 -0.079,1.91667 -0.3323,0.33229 -0.5687,-0.25834 -0.5253,-1.3125 z m 1,-6 c 0.048,-1.16495 0.285,-1.4019 0.6042,-0.60417 0.2889,0.72188 0.2533,1.58438 -0.079,1.91667 -0.3323,0.33229 -0.5687,-0.25834 -0.5253,-1.3125 z m 1,-6 c 0.048,-1.16495 0.285,-1.4019 0.6042,-0.60417 0.2889,0.72188 0.2533,1.58438 -0.079,1.91667 -0.3323,0.33229 -0.5687,-0.25834 -0.5253,-1.3125 z m -150,-9 c 0.048,-1.16495 0.285,-1.4019 0.6042,-0.60417 0.2889,0.72188 0.2533,1.58438 -0.079,1.91667 -0.3323,0.33229 -0.5687,-0.25834 -0.5253,-1.3125 z m 158,-40 c 0.048,-1.16495 0.285,-1.4019 0.6042,-0.60417 0.2889,0.72188 0.2533,1.58438 -0.079,1.91667 -0.3323,0.33229 -0.5687,-0.25834 -0.5253,-1.3125 z m 1,-6 c 0.048,-1.16495 0.285,-1.4019 0.6042,-0.60417 0.2889,0.72188 0.2533,1.58438 -0.079,1.91667 -0.3323,0.33229 -0.5687,-0.25834 -0.5253,-1.3125 z m -150,-6 c 0.048,-1.16495 0.285,-1.4019 0.6042,-0.60417 0.2889,0.72188 0.2533,1.58438 -0.079,1.91667 -0.3323,0.33229 -0.5687,-0.25834 -0.5253,-1.3125 z m 158,-43 c 0.048,-1.16495 0.285,-1.4019 0.6042,-0.60417 0.2889,0.72188 0.2533,1.58438 -0.079,1.91667 -0.3323,0.33229 -0.5687,-0.25834 -0.5253,-1.3125 z m 1,-6 c 0.048,-1.16495 0.285,-1.4019 0.6042,-0.60417 0.2889,0.72188 0.2533,1.58438 -0.079,1.91667 -0.3323,0.33229 -0.5687,-0.25834 -0.5253,-1.3125 z m 1,-6 c 0.048,-1.16495 0.285,-1.4019 0.6042,-0.60417 0.2889,0.72188 0.2533,1.58438 -0.079,1.91667 -0.3323,0.33229 -0.5687,-0.25834 -0.5253,-1.3125 z m -142,-49 c 0.048,-1.16495 0.285,-1.4019 0.6042,-0.60417 0.2889,0.72188 0.2533,1.58438 -0.079,1.91667 -0.3323,0.33229 -0.5687,-0.25834 -0.5253,-1.3125 z m 150,0 c 0.048,-1.16495 0.285,-1.4019 0.6042,-0.60417 0.2889,0.72188 0.2533,1.58438 -0.079,1.91667 -0.3323,0.33229 -0.5687,-0.25834 -0.5253,-1.3125 z m 2,-12 c 0.048,-1.16495 0.285,-1.4019 0.6042,-0.60417 0.2889,0.72188 0.2533,1.58438 -0.079,1.91667 -0.3323,0.33229 -0.5687,-0.25834 -0.5253,-1.3125 z m 210,-33 c 0.048,-1.16495 0.285,-1.4019 0.6042,-0.60417 0.2889,0.72188 0.2533,1.58438 -0.079,1.91667 -0.3323,0.33229 -0.5687,-0.25834 -0.5253,-1.3125 z m -353,-7 c 0.048,-1.16495 0.285,-1.4019 0.6042,-0.60417 0.2889,0.72188 0.2533,1.58438 -0.079,1.91667 -0.3323,0.33229 -0.5687,-0.25834 -0.5253,-1.3125 z m -205.8267,-3.91667 c 0.011,-2.2 0.2159,-2.98225 0.4551,-1.73834 0.2391,1.24391 0.2301,3.04391 -0.02,4 -0.2503,0.95609 -0.446,-0.0617 -0.4349,-2.26166 z m 708,-6 c 0.011,-2.2 0.2159,-2.98225 0.4551,-1.73834 0.2391,1.24391 0.2301,3.04391 -0.02,4 -0.2503,0.95609 -0.446,-0.0617 -0.4349,-2.26166 z m -898.17326,-4.08333 c 0.048,-1.16495 0.28494,-1.4019 0.60417,-0.60417 0.28887,0.72188 0.25334,1.58438 -0.0789,1.91667 -0.33229,0.33229 -0.56864,-0.25834 -0.52522,-1.3125 z m 547.99996,-1 c 0.048,-1.16495 0.285,-1.4019 0.6042,-0.60417 0.2889,0.72188 0.2533,1.58438 -0.079,1.91667 -0.3323,0.33229 -0.5687,-0.25834 -0.5253,-1.3125 z m -358.884,-1.91667 c 0.02,-1.65 0.2445,-2.20393 0.4981,-1.23097 0.2535,0.97297 0.2369,2.32297 -0.037,3 -0.2739,0.67704 -0.4813,-0.11903 -0.461,-1.76903 z m -188.11596,-4.08333 c 0.048,-1.16495 0.28494,-1.4019 0.60417,-0.60417 0.28887,0.72188 0.25334,1.58438 -0.0789,1.91667 -0.33229,0.33229 -0.56864,-0.25834 -0.52522,-1.3125 z m 225.16676,-112.66667 -0.2457,-114.749999 74.25,0.243452 74.25,0.243453 -73.7458,0.262994 -73.7457,0.262995 -0.2586,114.243555 -0.2585,114.24355 z m 322.8332,112.66667 c 0.048,-1.16495 0.285,-1.4019 0.6042,-0.60417 0.2889,0.72188 0.2533,1.58438 -0.079,1.91667 -0.3323,0.33229 -0.5687,-0.25834 -0.5253,-1.3125 z m -361,-5 c 0.048,-1.16495 0.285,-1.4019 0.6042,-0.60417 0.2889,0.72188 0.2533,1.58438 -0.079,1.91667 -0.3323,0.33229 -0.5687,-0.25834 -0.5253,-1.3125 z m -185.99996,-2 c 0.048,-1.16495 0.28494,-1.4019 0.60417,-0.60417 0.28887,0.72188 0.25334,1.58438 -0.0789,1.91667 -0.33229,0.33229 -0.56864,-0.25834 -0.52522,-1.3125 z m 893.99996,-2 c 0.048,-1.16495 0.285,-1.4019 0.6042,-0.60417 0.2889,0.72188 0.2533,1.58438 -0.079,1.91667 -0.3323,0.33229 -0.5687,-0.25834 -0.5253,-1.3125 z m -709,-3 c 0.048,-1.16495 0.285,-1.4019 0.6042,-0.60417 0.2889,0.72188 0.2533,1.58438 -0.079,1.91667 -0.3323,0.33229 -0.5687,-0.25834 -0.5253,-1.3125 z m -183.99996,-2 c 0.048,-1.16495 0.28494,-1.4019 0.60417,-0.60417 0.28887,0.72188 0.25334,1.58438 -0.0789,1.91667 -0.33229,0.33229 -0.56864,-0.25834 -0.52522,-1.3125 z m -315.5979,-36.41667 0.019,-35.5 6.75401,-0.0742 6.75401,-0.0742 -6.49143,0.36958 -6.49142,0.36958 -0.28153,35.20459 -0.28153,35.2046 z m 23.97743,-6.5 c 2.4e-4,-23.65 0.13104,-33.18206 0.29067,-21.18235 0.15963,11.99971 0.15943,31.34971 -4.4e-4,43 -0.15986,11.65029 -0.29047,1.83235 -0.29023,-21.81765 z m 45.32675,18.75 c -0.15687,-13.0625 0.0386,-24.425 0.43436,-25.25 0.39578,-0.825 0.73328,9.8625 0.75,23.75 0.0167,13.8875 -0.17873,25.25 -0.43436,25.25 -0.25562,0 -0.59312,-10.6875 -0.75,-23.75 z m 13.45337,-17.96107 -0.2386,-42.21106 -8.75,-0.3333 -8.75,-0.3333 8.78139,-0.20563 c 6.26353,-0.14668 8.91898,0.15295 9.26129,1.04499 0.26396,0.68785 0.3572,19.92535 0.20722,42.75 l -0.2727,41.49937 z m 785.84031,13.12774 c 0.048,-1.16495 0.285,-1.4019 0.6042,-0.60417 0.2889,0.72188 0.2533,1.58438 -0.079,1.91667 -0.3323,0.33229 -0.5687,-0.25834 -0.5253,-1.3125 z m -547.99996,-5 c 0.048,-1.16495 0.28494,-1.4019 0.60417,-0.60417 0.28887,0.72188 0.25334,1.58438 -0.0789,1.91667 -0.33229,0.33229 -0.56864,-0.25834 -0.52522,-1.3125 z m 548.99996,-1 c 0.048,-1.16495 0.285,-1.4019 0.6042,-0.60417 0.2889,0.72188 0.2533,1.58438 -0.079,1.91667 -0.3323,0.33229 -0.5687,-0.25834 -0.5253,-1.3125 z m -547.99996,-6 c 0.048,-1.16495 0.28494,-1.4019 0.60417,-0.60417 0.28887,0.72188 0.25334,1.58438 -0.0789,1.91667 -0.33229,0.33229 -0.56864,-0.25834 -0.52522,-1.3125 z m 548.99996,0 c 0.048,-1.16495 0.285,-1.4019 0.6042,-0.60417 0.2889,0.72188 0.2533,1.58438 -0.079,1.91667 -0.3323,0.33229 -0.5687,-0.25834 -0.5253,-1.3125 z m -547.99996,-7 c 0.048,-1.16495 0.28494,-1.4019 0.60417,-0.60417 0.28887,0.72188 0.25334,1.58438 -0.0789,1.91667 -0.33229,0.33229 -0.56864,-0.25834 -0.52522,-1.3125 z m 854.86726,-14.16667 -3.4462,-3.75 3.75,3.44617 c 3.4904,3.20761 4.2098,4.05383 3.4462,4.05383 -0.1671,0 -1.8546,-1.6875 -3.75,-3.75 z m -851.86726,-6.83333 c 0.048,-1.16495 0.28494,-1.4019 0.60417,-0.60417 0.28887,0.72188 0.25334,1.58438 -0.0789,1.91667 -0.33229,0.33229 -0.56864,-0.25834 -0.52522,-1.3125 z M 555.13141,211.0576 c -0.28898,-0.75306 -0.38735,-3.79056 -0.21861,-6.75 l 0.30679,-5.3808 20,-0.0334 20,-0.0334 -19.75,0.30451 -19.75,0.30452 v 5.93317 5.93317 l 6.75,0.34983 6.75,0.34983 -6.78138,0.19586 c -4.95811,0.1432 -6.92265,-0.17227 -7.3068,-1.17334 z m 352.66713,-3.21413 c 0.048,-1.16495 0.28494,-1.4019 0.60417,-0.60417 0.28887,0.72188 0.25334,1.58438 -0.0789,1.91667 -0.33229,0.33229 -0.56864,-0.25834 -0.52522,-1.3125 z m 1,-7 c 0.048,-1.16495 0.28494,-1.4019 0.60417,-0.60417 0.28887,0.72188 0.25334,1.58438 -0.0789,1.91667 -0.33229,0.33229 -0.56864,-0.25834 -0.52522,-1.3125 z m -297.79878,-2.15294 c 2.6291,-0.20668 6.6791,-0.20418 9,0.006 2.32091,0.20972 0.16983,0.37882 -4.78017,0.37578 -4.95,-0.003 -6.84892,-0.17464 -4.21983,-0.38132 z m 298.79878,-4.84706 c 0.048,-1.16495 0.28494,-1.4019 0.60417,-0.60417 0.28887,0.72188 0.25334,1.58438 -0.0789,1.91667 -0.33229,0.33229 -0.56864,-0.25834 -0.52522,-1.3125 z m 549.99996,0 c 0.048,-1.16495 0.285,-1.4019 0.6042,-0.60417 0.2889,0.72188 0.2533,1.58438 -0.079,1.91667 -0.3323,0.33229 -0.5687,-0.25834 -0.5253,-1.3125 z m 228.7336,-3.09978 c 0.7219,-0.28887 1.5844,-0.25335 1.9167,0.0789 0.3322,0.3323 -0.2584,0.56864 -1.3125,0.52522 -1.165,-0.048 -1.4019,-0.28494 -0.6042,-0.60416 z m -694.00001,-1 c 0.72188,-0.28887 1.58438,-0.25335 1.91667,0.0789 0.33229,0.3323 -0.25834,0.56864 -1.3125,0.52522 -1.16494,-0.048 -1.4019,-0.28494 -0.60417,-0.60416 z m 683.93751,0.0208 c 0.6875,-0.27741 1.8125,-0.27741 2.5,0 0.6875,0.27741 0.125,0.50439 -1.25,0.50439 -1.375,0 -1.9375,-0.22698 -1.25,-0.50439 z"
       id="path3" />
    <path
       style="fill:#000000"
       d="m 823.96959,879.67274 -119.25,-0.25407 V 534.42274 189.4268 h 73.99829 73.99829 l 0.25171,288.75 0.25171,288.75 24.13337,0.23993 c 15.01458,0.14927 26.27,-0.18917 29.78805,-0.8957 12.15931,-2.44193 21.1936,-11.10794 25.85112,-24.79728 l 2.22746,-6.54695 0.27625,-208.5 c 0.30669,-231.47026 0.81754,-213.63743 -6.29896,-219.8858 -5.82061,-5.11056 -11.00891,-5.03855 -32.90351,0.45664 -2.26334,0.56806 -2.25628,0.50184 6.04688,-56.75106 4.57207,-31.52588 8.32782,-58.14002 8.3461,-59.14253 0.0318,-1.7418 2.02076,-1.80585 44.78324,-1.44216 44.59721,0.37929 44.78311,0.38955 54.46211,3.00554 25.8687,6.99169 43.98,21.7305 56.2164,45.74855 8.3066,16.30443 13.0362,33.25918 16.7402,60.01082 1.6418,11.85812 2.4323,405.11012 0.8566,426.18795 -2.2286,29.81341 -7.9678,50.43013 -21.0802,75.72658 -7.4261,14.32637 -16.2314,26.77628 -27.4442,38.80358 -22.5374,24.17478 -50.13242,37.49468 -83.02888,40.07747 -4.93462,0.38743 -62.63453,0.59009 -128.22203,0.45036 z m 893.00001,-0.002 -73.25,-0.25649 v -276.8791 c 0,-254.6109 -0.1328,-277.28971 -1.6506,-281.98945 -2.1983,-6.80664 -7.096,-12.30817 -13.5559,-15.22704 l -5.2935,-2.39186 -67.25,-0.27708 -67.25,-0.27708 V 245.85437 189.3361 l 98.75,0.38859 c 84.0137,0.33061 99.9605,0.62051 106.8618,1.9427 28.9423,5.54493 47.813,14.32162 63.7354,29.64308 16.715,16.0842 27.3138,38.22756 31.6462,66.11633 0.6408,4.125 1.4521,8.625 1.8028,10 0.3507,1.375 0.7767,132.8349 0.9466,292.13311 0.2497,234.18168 0.065,289.70334 -0.967,290 -0.7017,0.20179 -34.2383,0.25147 -74.5258,0.1104 z m -523.25,-1.27122 c 0,-0.8633 25.6138,-149.73599 31.9969,-185.97229 3.1318,-17.77931 10.5089,-60.29043 14.4033,-83 1.9335,-11.275 6.2097,-36.025 9.5028,-55 5.8557,-33.7414 10.2959,-59.4169 14.0942,-81.5 1.0405,-6.05 7.9919,-46.15928 15.4474,-89.13173 7.4555,-42.97246 13.5554,-78.85996 13.5554,-79.75 0,-1.47847 -7.4223,-1.61827 -85.9167,-1.61827 -56.3592,0 -86.0313,-0.34385 -86.25,-0.99948 -0.1833,-0.54972 -0.217,-52.52472 -0.075,-115.5 l 0.2584,-114.500519 h 73.4916 73.4916 v 58.999999 59 h 96.5453 96.5453 l -0.5604,3.25 c -0.3082,1.7875 -4.5688,27.775 -9.4679,57.75 -9.7164,59.44954 -18.8526,115.27566 -28.1484,172 -3.2899,20.075 -7.7854,47.525 -9.9901,61 -2.2046,13.475 -6.0029,36.65 -8.4406,51.5 -2.4376,14.85 -7.1592,43.65 -10.4924,64 -3.3332,20.35 -7.8304,47.8 -9.9938,61 -15.3028,93.37054 -20.7334,126.60894 -27.4483,168 -4.1937,25.85 -7.8413,48.0125 -8.1058,49.25 l -0.481,2.25 h -76.981 c -52.0375,0 -76.9809,-0.333 -76.9809,-1.02771 z m 862,-54.97229 v -56 l 26,-0.125 c 14.3,-0.0687 26.45,-0.2375 27,-0.375 0.55,-0.1375 1.4462,-0.30625 1.9916,-0.375 0.6522,-0.0822 0.9959,-79.52725 1.0042,-232.125 l 0.012,-232 h -28.0041 -28.0042 v -56.5 -56.5 h 102 102 v 345 345 h -102 -102 z m -198,-438 v -196 h 74 74 v 196 196 h -74 -74 z m -1289.00001,-138 v -36 h -6.5 -6.5 v -6 -6 h 19.5 19.5 v 5.95431 5.95431 l -6.75,0.29569 -6.75,0.29569 -0.26263,35.75 -0.26263,35.75 h -5.98737 -5.98737 z m 36.99771,-6.25 -0.002,-42.25 8.85477,0.31717 8.85478,0.31718 4.75912,24.68282 c 6.18785,32.09288 6.66577,34.38631 7.07941,33.97268 0.19149,-0.19149 2.65009,-12.48504 5.46356,-27.31901 2.81348,-14.83396 5.36164,-27.98334 5.66259,-29.22084 0.5134,-2.11111 1.06517,-2.25 8.93877,-2.25 h 8.39159 v 42 42 h -6 -6 l -0.0304,-25.25 c -0.0167,-13.8875 -0.40251,-24.575 -0.8573,-23.75 -0.45479,0.825 -3.01337,12.20764 -5.68573,25.29476 l -4.85883,23.79477 -5.02764,-0.29477 -5.02763,-0.29476 -5.69971,-24.33043 c -3.13484,-13.38174 -5.91461,-24.85674 -6.17728,-25.5 -0.26266,-0.64326 -0.5131,10.41793 -0.55652,24.58043 l -0.0789,25.75 h -6 -6 z"
       id="path2" />
  </g>
</svg>
