<svg xmlns="http://www.w3.org/2000/svg" width="1551" height="183"><g fill="#e1251b"><path fill-rule="evenodd" d="M1526.4 49.6c-11.8 0-21.9-10.1-21.4-22.5 0-11.9 10.2-22 22.5-21.5h1.2c11.8 0 21.9 10.2 21.3 22.6 0 11.8-10.1 22-22.5 21.4zm2.3-1.7c11.2 0 19.6-9.6 19.6-20.8 0-11.3-9.5-20.3-20.8-19.8h-1.1c-11.2 0-19.7 9.6-19.7 20.9s9.6 20.3 20.8 19.7zm5.6-9-10.7-11.3h-1.7v11.3h-1.7V15.2h10.1c3.4.6 5.7 3.4 5.7 6.8s-2.8 6.2-6.2 6.2h-4.5l10.7 11.3zm-4.5-22h-8.5v9.6h8.5c2.2-.6 3.9-2.3 3.9-4.5.6-2.3-1.7-4.6-3.9-5.1M339.3 5.1v170.2H.3V5.1zM42.4 47.4v85.1h254.1V47.4z"/><path d="M42.4 90.2h127.1v42.3zM296.6 90.2H169.5V47.9z"/><path fill-rule="evenodd" d="M468.7 175.3h-43.9V5.1h69.7c19.7 0 31.5 3.4 42.2 14.1C548 29.9 553.6 45.1 553 60.9c0 37.7-19.7 57.5-57.3 57.5h-27.6zm14.1-93c16.8 0 24.2-6.2 24.2-21.4 0-13.6-8.5-20.9-24.2-20.9h-14.6v42.8z"/><path d="M605.3 5.1h-43.8v170.2h96.7v-37.2h-52.9z"/><path fill-rule="evenodd" d="m721.2 145.4-11.8 29.3h-46.7L727.9 4.5h47.8l63.5 170.2H792l-10.7-29.3zm30.4-87.3L733 112.2h36.6z"/><path d="M960.7 14.7c-16.3-9.1-34.9-13.6-53.4-13.6-34.3 0-57.9 23.1-57.9 57.5-1.2 12.4 3.9 24.8 12.9 33.3 6.2 5.1 13.5 8.4 33.2 14.1 20.8 6.2 26.4 10.7 26.4 19.7 0 10.1-8.4 16.3-21.4 16.3-12.9 0-25.3-5.6-38.8-17.4l-18.5 35.5c17.4 12.4 37.7 19.1 59 19.1 41.6 0 66.4-22.5 66.4-60.8 0-24.3-12.4-38.4-41.6-47.4-15.2-4.5-16.9-5-19.1-6.2-7.9-3.4-11.3-7.9-11.3-13.5 0-7.9 8.4-14.7 18.6-14.7 10.6 0 20.8 4.6 29.2 11.3zM1311.6 175.3h43.9V71l80.9 104.3h43.9V5.1h-43.9v104.3L1355.5 5.1h-43.9z"/><path fill-rule="evenodd" d="M1208.1 182.1c-51.9 0-93.9-40.7-93.9-91.1 0-50.3 42-91 93.9-91 52 0 93.9 40.7 93.9 91 0 50.4-41.9 91.1-93.9 91.1m-47.8-91.3c0 26.4 21.4 47.9 47.8 47.9 26.5 0 47.8-21.5 47.8-47.9 0-26.5-21.3-48-47.8-48-26.4 0-47.8 21.5-47.8 48"/><path d="M1101.3 14.7c-16.9-9.1-34.9-13.6-54-14.1-34.3 0-57.9 23.1-57.9 57.5-1.1 12.4 3.9 24.8 12.9 33.2 6.2 5.7 14.1 8.5 33.2 14.1 20.8 6.2 26.4 10.7 26.4 19.7 0 10.2-8.4 16.9-21.3 16.9-13 0-25.3-5.6-38.8-17.4l-19.2 36c17.5 12.4 38.3 19.2 59.1 19.2 41.6 0 66.3-22.5 66.3-60.9 0-24.8-12.3-38.9-41.6-47.3-15.2-4.5-16.8-5.1-19.1-6.2-7.9-3.4-11.2-7.9-11.2-13.5 0-8.5 8.4-14.7 19.1-14.7s20.8 4.5 29.2 11.3z"/></g></svg>