<?xml version="1.0" encoding="UTF-8" standalone="no"?>
<!-- Created with Inkscape (http://www.inkscape.org/) -->

<svg
   version="1.1"
   id="svg1"
   width="606.37543"
   height="229.0522"
   viewBox="0 0 606.37543 229.0522"
   sodipodi:docname="sp.svg"
   inkscape:version="1.4.3 (0d15f75, 2025-12-25)"
   xmlns:inkscape="http://www.inkscape.org/namespaces/inkscape"
   xmlns:sodipodi="http://sodipodi.sourceforge.net/DTD/sodipodi-0.dtd"
   xmlns="http://www.w3.org/2000/svg"
   xmlns:svg="http://www.w3.org/2000/svg">
  <defs
     id="defs1" />
  <sodipodi:namedview
     id="namedview1"
     pagecolor="#505050"
     bordercolor="#eeeeee"
     borderopacity="1"
     inkscape:showpageshadow="0"
     inkscape:pageopacity="0"
     inkscape:pagecheckerboard="0"
     inkscape:deskcolor="#505050"
     inkscape:zoom="0.59106444"
     inkscape:cx="293.53822"
     inkscape:cy="-68.520448"
     inkscape:window-width="933"
     inkscape:window-height="985"
     inkscape:window-x="206"
     inkscape:window-y="9"
     inkscape:window-maximized="0"
     inkscape:current-layer="svg1" />
  <g
     id="g2"
     transform="translate(-41.43174,-258.84941)">
    <path
       style="fill:#f9e19c"
       d="m 410.66668,478.00001 c 1.72233,-1.83333 3.4315,-3.33333 3.79817,-3.33333 0.36667,0 -0.74251,1.5 -2.46484,3.33333 -1.72233,1.83334 -3.4315,3.33334 -3.79817,3.33334 -0.36667,0 0.74251,-1.5 2.46484,-3.33334 z m 11.11494,-30 c 0,-5.5 0.23536,-7.75 0.52302,-5 0.28766,2.75 0.28766,7.25 0,10 -0.28766,2.75 -0.52302,0.5 -0.52302,-5 z m -311.35214,-19.6661 c 22.96955,-0.20469 60.16955,-0.20455 82.66667,3e-4 22.49712,0.20485 3.70386,0.37232 -41.76281,0.37216 -45.46667,-1.7e-4 -63.873406,-0.16777 -40.90386,-0.37246 z M 441.00001,396.4503 c 0.91667,-0.36988 2.41667,-0.36988 3.33334,0 0.91666,0.36989 0.16666,0.67252 -1.66667,0.67252 -1.83333,0 -2.58333,-0.30263 -1.66667,-0.67252 z m 126.02538,-1.37428 c 1.29729,-0.33805 3.09729,-0.31582 4,0.0494 0.90271,0.36523 -0.15871,0.64182 -2.35871,0.61465 -2.2,-0.0272 -2.93858,-0.326 -1.64129,-0.66406 z m 15.39129,-1.32016 c 0.9625,-0.38516 2.1125,-0.33779 2.55556,0.10526 0.44306,0.44306 -0.34444,0.75819 -1.75,0.7003 -1.55326,-0.064 -1.8692,-0.37993 -0.80556,-0.80556 z M 352.21054,382.66668 c 0,-1.83334 0.30263,-2.58334 0.67251,-1.66667 0.36988,0.91667 0.36988,2.41667 0,3.33333 -0.36988,0.91667 -0.67251,0.16667 -0.67251,-1.66666 z m 280.45615,-8 c 1.32731,-1.46667 2.7133,-2.66667 3.07996,-2.66667 0.36667,0 -0.41932,1.2 -1.74663,2.66667 -1.32732,1.46666 -2.7133,2.66666 -3.07997,2.66666 -0.36666,0 0.41932,-1.2 1.74664,-2.66666 z m -70.25001,-38.24416 c 0.9625,-0.38516 2.1125,-0.33779 2.55556,0.10527 0.44305,0.44305 -0.34445,0.75818 -1.75,0.70029 -1.55326,-0.064 -1.8692,-0.37992 -0.80556,-0.80556 z m 8.07993,-14.75584 c -1.65849,-2.11474 -1.61133,-2.16191 0.50341,-0.50341 1.28333,1.00646 2.33333,2.05646 2.33333,2.33333 0,1.09738 -1.09491,0.39107 -2.83674,-1.82992 z m 10.58674,-59.91082 c 0.9625,-0.38517 2.1125,-0.3378 2.55556,0.10526 0.44305,0.44305 -0.34445,0.75819 -1.75,0.70029 -1.55326,-0.064 -1.8692,-0.37992 -0.80556,-0.80555 z m -12.08333,-1.30556 c 0.91666,-0.36988 2.41666,-0.36988 3.33333,0 0.91667,0.36988 0.16667,0.67251 -1.66667,0.67251 -1.83333,0 -2.58333,-0.30263 -1.66666,-0.67251 z m -167.43208,-1.44971 c 27.62903,-0.20118 73.22903,-0.20128 101.33334,-2e-4 28.1043,0.20107 5.49874,0.36568 -50.2346,0.36579 -55.73333,1.1e-4 -78.72777,-0.1644 -51.09874,-0.36559 z"
       id="path8" />
    <path
       style="fill:#f5d164"
       d="m 362.4966,477.66668 c -1.65849,-2.11474 -1.61133,-2.1619 0.50341,-0.50341 2.221,1.74183 2.92731,2.83674 1.82993,2.83674 -0.27688,0 -1.32688,-1.05 -2.33334,-2.33333 z m -9.91297,-57 c -7.1e-4,-19.8 0.18485,-28.08587 0.41235,-18.41305 0.22751,9.67282 0.2281,25.87282 0.001,36 -0.22679,10.12718 -0.41293,2.21305 -0.41365,-17.58695 z m 69.11287,12.66667 c 0,-3.3 0.26002,-4.65 0.57782,-3 0.31781,1.65 0.31781,4.35 0,6 -0.3178,1.65 -0.57782,0.3 -0.57782,-3 z m 137.30352,-38.25244 c 1.28333,-0.33537 3.38333,-0.33537 4.66666,0 1.28334,0.33537 0.23334,0.60976 -2.33333,0.60976 -2.56667,0 -3.61667,-0.27439 -2.33333,-0.60976 z M 409.08335,337.75586 c 0.9625,-0.38516 2.1125,-0.33779 2.55555,0.10526 0.44306,0.44306 -0.34444,0.75819 -1.75,0.70029 -1.55326,-0.064 -1.8692,-0.37992 -0.80555,-0.80555 z m 222.81575,-54.75585 -3.23241,-3.66667 3.66666,3.23242 c 3.42705,3.02118 4.27812,4.10092 3.23242,4.10092 -0.23884,0 -1.88884,-1.65 -3.66667,-3.66667 z m -66.81575,-22.57749 c 0.9625,-0.38516 2.1125,-0.33779 2.55556,0.10527 0.44305,0.44305 -0.34445,0.75818 -1.75,0.70029 -1.55326,-0.064 -1.8692,-0.37992 -0.80556,-0.80556 z"
       id="path7" />
    <path
       style="fill:#f2c334"
       d="m 389.08334,487.0892 c 0.9625,-0.38517 2.1125,-0.3378 2.55556,0.10526 0.44306,0.44305 -0.34444,0.75819 -1.75,0.70029 -1.55326,-0.064 -1.8692,-0.37992 -0.80556,-0.80555 z M 550.3489,395.057 c 1.65855,-0.31893 4.05855,-0.30682 5.33333,0.0269 1.27478,0.33373 -0.0822,0.59467 -3.01555,0.57987 -2.93333,-0.0148 -3.97633,-0.28785 -2.31778,-0.60677 z m 23.08971,-67.83477 c 0.064,-1.55326 0.37992,-1.8692 0.80556,-0.80555 0.38516,0.9625 0.33779,2.1125 -0.10526,2.55555 -0.44306,0.44306 -0.75819,-0.34444 -0.7003,-1.75 z m -169.10526,-9.55511 c 29.15,-0.20041 76.85,-0.20041 106,0 29.15,0.2004 5.3,0.36437 -53,0.36437 -58.3,0 -82.15001,-0.16397 -53,-0.36437 z"
       id="path6" />
    <path
       style="fill:#a2a2a1"
       d="m 279.66668,487.11697 c 0.91666,-0.36988 2.41666,-0.36988 3.33333,0 0.91667,0.36989 0.16667,0.67252 -1.66667,0.67252 -1.83333,0 -2.58333,-0.30263 -1.66666,-0.67252 z m -229.793362,-7.45029 -2.539983,-3 3,2.53998 c 1.65,1.397 3,2.747 3,3 0,1.06701 -1.073059,0.27928 -3.460017,-2.53998 z m -8.43472,-16.44444 c 0.06398,-1.55326 0.37992,-1.8692 0.805555,-0.80556 0.385161,0.9625 0.337793,2.1125 -0.105263,2.55556 -0.443055,0.44305 -0.758187,-0.34445 -0.700292,-1.75 z M 235.02538,428.40936 c 1.29729,-0.33806 3.09729,-0.31583 4,0.0494 0.90271,0.36523 -0.15871,0.64183 -2.35871,0.61465 -2.2,-0.0272 -2.93858,-0.32599 -1.64129,-0.66405 z m 3.39129,-31.98683 c 0.9625,-0.38516 2.1125,-0.3378 2.55556,0.10526 0.44305,0.44306 -0.34445,0.75819 -1.75,0.70029 -1.55326,-0.064 -1.8692,-0.37992 -0.80556,-0.80555 z M 119.68222,395.057 c 1.65855,-0.31893 4.05855,-0.30682 5.33333,0.0269 1.27478,0.33373 -0.0822,0.59467 -3.01555,0.57987 -2.93333,-0.0148 -3.97633,-0.28785 -2.31778,-0.60677 z m -13.26555,-1.30114 c 0.9625,-0.38516 2.1125,-0.33779 2.55556,0.10526 0.44305,0.44306 -0.34445,0.75819 -1.75,0.7003 -1.55326,-0.064 -1.8692,-0.37993 -0.80556,-0.80556 z m 217.41327,-38.75585 c -1.6585,-2.11474 -1.61134,-2.1619 0.5034,-0.50341 1.28334,1.00646 2.33334,2.05646 2.33334,2.33334 0,1.09738 -1.09492,0.39107 -2.83674,-1.82993 z M 41.593266,336.66668 c 0.02717,-2.2 0.325998,-2.93858 0.664056,-1.64129 0.338058,1.29729 0.315826,3.09729 -0.04941,4 -0.365231,0.90271 -0.641824,-0.15871 -0.614651,-2.35871 z m 239.490074,1.08918 c 0.9625,-0.38516 2.1125,-0.33779 2.55556,0.10526 0.44305,0.44306 -0.34445,0.75819 -1.75,0.70029 -1.55326,-0.064 -1.8692,-0.37992 -0.80556,-0.80555 z m -164.8234,-10.42252 c 0.0272,-2.2 0.32599,-2.93858 0.66405,-1.64129 0.33806,1.29729 0.31583,3.09729 -0.0494,4 -0.36524,0.90271 -0.64183,-0.15871 -0.61465,-2.35871 z m -74.666674,-9.33333 c 0.02717,-2.2 0.325998,-2.93858 0.664056,-1.64129 0.338058,1.29729 0.315826,3.09729 -0.04941,4 -0.365231,0.90271 -0.641824,-0.15871 -0.614651,-2.35871 z m 15.073402,-35.33333 c 1.327315,-1.46667 2.713301,-2.66667 3.079967,-2.66667 0.366667,0 -0.419318,1.2 -1.746633,2.66667 -1.327315,1.46666 -2.713301,2.66666 -3.079967,2.66666 -0.366667,0 0.419318,-1.2 1.746633,-2.66666 z M 107.75,261.75586 c 0.9625,-0.38517 2.1125,-0.3378 2.55556,0.10526 0.44305,0.44305 -0.34445,0.75819 -1.75,0.70029 -1.55326,-0.064 -1.8692,-0.37992 -0.80556,-0.80555 z m 10.58334,-1.30556 c 0.91666,-0.36988 2.41666,-0.36988 3.33333,0 0.91667,0.36988 0.16667,0.67251 -1.66667,0.67251 -1.83333,0 -2.58333,-0.30263 -1.66666,-0.67251 z m 69.33333,-1.44979 c 27.31667,-0.20146 72.01667,-0.20146 99.33334,0 27.31667,0.20146 4.96667,0.36629 -49.66667,0.36629 -54.63333,0 -76.98334,-0.16483 -49.66667,-0.36629 z"
       id="path5" />
    <path
       style="fill:#f2bc19"
       d="m 378.28465,486.06654 c -7.96988,-2.09676 -15.09824,-7.75168 -20.28464,-16.09178 l -4,-6.43229 v -44.10456 -44.10457 l 3.69396,-7.522 c 6.56429,-13.36687 17.7625,-21.53967 36.74727,-26.81928 9.77627,-2.71876 13.84,-2.87621 92.51278,-3.58453 89.47365,-0.80555 85.14008,-0.39637 87.05571,-8.21988 0.63513,-2.59393 0.009,-4.45959 -2.46301,-7.33333 l -3.31486,-3.85431 -108.11593,-0.37115 -108.11592,-0.37116 v -28.6995 -28.6995 l 110.33334,0.4801 c 119.88309,0.52165 121.77277,0.63008 144.19751,8.27421 29.92035,10.19922 43.86609,32.73118 40.8809,66.05079 -3.39604,37.9055 -20.12409,52.93738 -65.41174,58.77923 -6.74635,0.87023 -41.50598,1.91474 -79.39528,2.38579 -74.41395,0.92511 -72.01387,0.62679 -76.61428,9.52301 -2.77455,5.36538 -4.56593,20.14264 -4.61595,38.07733 -0.0269,9.64426 -0.74747,16.83538 -2.07837,20.74134 -5.62924,16.52093 -24.05323,26.35749 -41.01149,21.89604 z"
       id="path4" />
    <path
       style="fill:#51514f"
       d="m 274.33334,487.11697 c 0.91667,-0.36988 2.41667,-0.36988 3.33333,0 0.91667,0.36989 0.16667,0.67252 -1.66666,0.67252 -1.83334,0 -2.58334,-0.30263 -1.66667,-0.67252 z m 48.33334,-17.11696 c 1.72232,-1.83333 3.4315,-3.33333 3.79817,-3.33333 0.36666,0 -0.74251,1.5 -2.46484,3.33333 -1.72233,1.83334 -3.4315,3.33334 -3.79817,3.33334 -0.36667,0 0.74251,-1.5 2.46484,-3.33334 z m -281.073414,-12 c 0.02717,-2.2 0.325998,-2.93858 0.664056,-1.64129 0.338058,1.29729 0.315826,3.09729 -0.04941,4 -0.365231,0.90271 -0.641824,-0.15871 -0.614651,-2.35871 z M 335.2516,413.33335 c 0,-20.16667 0.18532,-28.41667 0.41183,-18.33334 0.22651,10.08334 0.22651,26.58334 0,36.66667 -0.22651,10.08333 -0.41183,1.83333 -0.41183,-18.33333 z m -79.42167,-10.33334 c -1.65849,-2.11474 -1.61133,-2.1619 0.50341,-0.50341 1.28333,1.00646 2.33333,2.05646 2.33333,2.33334 0,1.09738 -1.09491,0.39107 -2.83674,-1.82993 z m -127.49659,-7.9191 c 1.28333,-0.33537 3.38333,-0.33537 4.66666,0 1.28334,0.33537 0.23334,0.60976 -2.33333,0.60976 -2.56667,0 -3.61667,-0.27439 -2.33333,-0.60976 z m -17.91667,-1.32505 c 0.9625,-0.38516 2.1125,-0.33779 2.55556,0.10526 0.44305,0.44306 -0.34445,0.75819 -1.75,0.7003 -1.55326,-0.064 -1.8692,-0.37993 -0.80556,-0.80556 z m -53.83388,-19.42252 -3.916122,-4.33333 4.333334,3.91612 c 4.039274,3.65038 4.946202,4.75055 3.916121,4.75055 -0.229466,0 -2.179466,-1.95 -4.333333,-4.33334 z m 220.50055,-36.57748 c 0.9625,-0.38516 2.1125,-0.33779 2.55556,0.10526 0.44305,0.44306 -0.34445,0.75819 -1.75,0.70029 -1.55326,-0.064 -1.8692,-0.37992 -0.80556,-0.80555 z M 41.714687,327.33334 c 0.01001,-3.66666 0.26895,-5.00841 0.575423,-2.98166 0.306472,2.02675 0.298282,5.02675 -0.0182,6.66666 -0.316483,1.63992 -0.567233,-0.0183 -0.557223,-3.685 z m 137.951983,-9.66621 c 28.78334,-0.20061 75.88334,-0.20061 104.66667,0 28.78334,0.2006 5.23334,0.36474 -52.33333,0.36474 -57.56667,0 -81.11667,-0.16414 -52.33334,-0.36474 z m -56,-57.21683 c 0.91667,-0.36988 2.41667,-0.36988 3.33333,0 0.91667,0.36988 0.16667,0.67251 -1.66666,0.67251 -1.83334,0 -2.58334,-0.30263 -1.66667,-0.67251 z"
       id="path3" />
    <path
       style="fill:#2c2c2a"
       d="M 64.453659,486.75949 C 52.12194,483.71499 43.834823,473.91392 42.922,461.29427 c -1.047441,-14.48072 6.725635,-26.56947 19.555925,-30.41351 3.687818,-1.1049 29.740122,-1.54741 91.101435,-1.54741 96.17573,0 95.94892,0.0191 103.62849,-8.72745 2.26902,-2.58427 4.12549,-5.9076 4.12549,-7.38516 0,-4.92088 -3.99201,-10.49434 -9.69414,-13.53451 -5.55498,-2.96171 -6.59499,-3.01939 -69.63919,-3.86216 -35.96672,-0.4808 -68.96423,-1.53504 -75.33334,-2.40683 -23.727433,-3.24777 -37.630606,-8.51357 -47.940706,-18.15746 -12.28747,-11.49349 -16.756971,-26.2436 -15.830038,-52.24181 0.506063,-14.19382 0.967423,-16.5964 4.731601,-24.64026 C 56.485674,279.44828 72.620259,269.36786 104,263.15782 c 9.91795,-1.96276 25.11256,-2.30961 121.66667,-2.77732 l 110.33334,-0.53447 v 28.7054 28.70541 l -106.33334,0.37158 c -83.35105,0.29128 -106.97833,0.74013 -109.31759,2.07674 -5.99,3.42259 -5.58852,13.61288 0.63396,16.09091 2.4903,0.99173 29.81605,1.6136 84.3503,1.9196 73.10724,0.41022 81.47884,0.68018 89.33334,2.88072 18.18648,5.09518 31.31197,14.26745 37.34818,26.09939 2.65794,5.21001 2.78728,7.39675 2.69082,45.49447 -0.0999,39.44403 -0.14724,40.11201 -3.28417,46.30244 -3.69139,7.2846 -12.74038,16.08532 -20.73018,20.16141 -3.06558,1.56395 -10.17523,4.13303 -15.79922,5.70908 -10.03518,2.81222 -12.23485,2.87084 -118.22544,3.15098 -59.4,0.157 -109.895856,-0.18261 -112.213011,-0.75467 z"
       id="path2" />
  </g>
</svg>
