<?xml version="1.0" encoding="UTF-8" standalone="no"?>
<!-- Created with Inkscape (http://www.inkscape.org/) -->

<svg
   xmlns:dc="http://purl.org/dc/elements/1.1/"
   xmlns:cc="http://creativecommons.org/ns#"
   xmlns:rdf="http://www.w3.org/1999/02/22-rdf-syntax-ns#"
   xmlns:svg="http://www.w3.org/2000/svg"
   xmlns="http://www.w3.org/2000/svg"
   xmlns:sodipodi="http://sodipodi.sourceforge.net/DTD/sodipodi-0.dtd"
   xmlns:inkscape="http://www.inkscape.org/namespaces/inkscape"
   version="1.1"
   id="svg2"
   xml:space="preserve"
   width="400"
   height="90"
   viewBox="0 0 400 89.999998"
   sodipodi:docname="טמבור לוגו חדש עברית.svg"
   inkscape:version="0.92.5 (2060ec1f9f, 2020-04-08)"><metadata
     id="metadata8"><rdf:RDF><cc:Work
         rdf:about=""><dc:format>image/svg+xml</dc:format><dc:type
           rdf:resource="http://purl.org/dc/dcmitype/StillImage" /><dc:title></dc:title></cc:Work></rdf:RDF></metadata><defs
     id="defs6"><clipPath
       clipPathUnits="userSpaceOnUse"
       id="clipPath18"><path
         d="M 0,0 H 595.276 V 841.89 H 0 Z"
         id="path16"
         inkscape:connector-curvature="0" /></clipPath><clipPath
       clipPathUnits="userSpaceOnUse"
       id="clipPath32"><path
         d="M 0,182.835 H 214.063 V 785.197 H 0 Z"
         id="path30"
         inkscape:connector-curvature="0" /></clipPath><clipPath
       clipPathUnits="userSpaceOnUse"
       id="clipPath44"><path
         d="M 0,0 H 595.276 V 841.89 H 0 Z"
         id="path42"
         inkscape:connector-curvature="0" /></clipPath><clipPath
       clipPathUnits="userSpaceOnUse"
       id="clipPath60"><path
         d="M 0,0 H 595.276 V 841.89 H 0 Z"
         id="path58"
         inkscape:connector-curvature="0" /></clipPath></defs><sodipodi:namedview
     pagecolor="#ffffff"
     bordercolor="#666666"
     borderopacity="1"
     objecttolerance="10"
     gridtolerance="10"
     guidetolerance="10"
     inkscape:pageopacity="0"
     inkscape:pageshadow="2"
     inkscape:window-width="1366"
     inkscape:window-height="705"
     id="namedview4"
     showgrid="false"
     inkscape:zoom="0.59465202"
     inkscape:cx="736.22152"
     inkscape:cy="101.22692"
     inkscape:window-x="-8"
     inkscape:window-y="-8"
     inkscape:window-maximized="1"
     inkscape:current-layer="g10" /><g
     id="g10"
     inkscape:groupmode="layer"
     inkscape:label="Tambour_ESG_240522FinalDouble_Lower-2"
     transform="matrix(1.3333333,0,0,-1.3333333,0,89.99998)"><g
       id="g54"
       transform="matrix(1.6764928,0,0,1.6764928,-620.49262,-328.33004)"><g
         id="g56"
         clip-path="url(#clipPath60)"><g
           id="g62"
           transform="translate(410.2965,216.4552)"><path
             d="M 0,0 V 19.634 H -26.635 V 6.453 h 13.226 V -7.14 H -27.002 V 6.041 h -13.181 v -26.636 h 19.68 C -9.245,-20.595 0,-11.304 0,0 m 23.936,-13.822 h 9.244 v 16.66 c 0,6.269 -4.027,10.114 -10.068,10.114 H 9.153 v -8.33 h 14.783 z m 12.997,0 h 9.336 v 26.773 h -9.336 z m 12.998,0 H 74.69 v 8.33 h -3.524 v 8.375 c 0,6.224 -3.981,10.069 -10.022,10.069 H 49.931 v -8.33 h 11.99 V -5.492 h -11.99 z m 56.75,13.913 c 0,8.696 -3.936,12.861 -12.266,12.861 H 77.986 V -13.822 H 87.23 V 4.622 H 97.344 V -5.492 h -6.819 v -8.33 l 2.838,-0.045 c 9.061,-0.138 13.318,4.485 13.318,13.958 m 32.081,0 v 12.861 h -16.063 v -8.33 h 6.818 V -5.492 h -10.113 v 18.444 h -9.245 v -26.819 h 15.286 c 9.061,0 13.317,4.485 13.317,13.958"
             style="fill:#005548;fill-opacity:1;fill-rule:nonzero;stroke:none"
             id="path64"
             inkscape:connector-curvature="0" /></g><g
           id="g66"
           transform="translate(444.8033,193.1624)" /><g
           id="g70"
           transform="translate(470.5851,185.2432)" /><g
           id="g74"
           transform="translate(473.983,184.0548)" /><g
           id="g78"
           transform="translate(475.6282,182.5904)" /><g
           id="g82"
           transform="translate(478.7627,183.5807)" /><g
           id="g86"
           transform="translate(483.9849,182.5572)" /></g></g></g></svg>